<svg width="269" height="95" viewBox="0 0 269 95" fill="none" xmlns="http://www.w3.org/2000/svg">
<path fill-rule="evenodd" clip-rule="evenodd" d="M11.6021 22.6721C9.40112 22.6721 7.24955 22.02 5.41955 20.7983C3.58955 19.5766 2.16331 17.8402 1.32123 15.8086C0.479138 13.7771 0.259035 11.5416 0.688748 9.38508C1.11846 7.22852 2.17869 5.24771 3.73534 3.69319C5.29199 2.13867 7.27513 1.08025 9.43394 0.651798C11.5928 0.223352 13.8303 0.444119 15.8634 1.28619C17.8967 2.12826 19.6342 3.55379 20.8564 5.3825C22.0786 7.21121 22.7305 9.36095 22.7296 11.5598C22.7325 13.0203 22.4466 14.4669 21.8884 15.8168C21.3302 17.1666 20.5106 18.3929 19.4766 19.4254C18.4427 20.458 17.2148 21.2763 15.8635 21.8334C14.5122 22.3906 13.064 22.6756 11.6021 22.6721Z" fill="#FFEC00"/>
<path fill-rule="evenodd" clip-rule="evenodd" d="M11.6021 22.6721C9.40112 22.6721 7.24955 22.02 5.41955 20.7983C3.58955 19.5766 2.16331 17.8402 1.32123 15.8086C0.479138 13.7771 0.259035 11.5416 0.688748 9.38508C1.11846 7.22852 2.17869 5.24771 3.73534 3.69319C5.29199 2.13867 7.27513 1.08025 9.43394 0.651798C11.5928 0.223352 13.8303 0.444119 15.8634 1.28619C17.8967 2.12826 19.6342 3.55379 20.8564 5.3825C22.0786 7.21121 22.7305 9.36095 22.7296 11.5598C22.7325 13.0203 22.4466 14.4669 21.8884 15.8168C21.3302 17.1666 20.5106 18.3929 19.4766 19.4254C18.4427 20.458 17.2148 21.2763 15.8635 21.8334C14.5122 22.3906 13.064 22.6756 11.6021 22.6721Z" fill="#FFEC00"/>
<path d="M15.0787 0.531857C13.9859 0.172855 12.8417 -0.00484685 11.6914 0.00582467H11.6079C8.52936 0.00582467 5.57682 1.22761 3.3999 3.40242C1.22298 5.57722 0 8.52691 0 11.6025C0 14.6782 1.22298 17.6279 3.3999 19.8026C5.57682 21.9774 8.52936 23.1992 11.6079 23.1992H11.6914C12.8462 23.1784 13.9901 22.9712 15.0787 22.5855C17.4252 21.8451 19.4743 20.377 20.9288 18.3941C22.3833 16.4113 23.1675 14.017 23.1675 11.5587C23.1675 9.10042 22.3833 6.70612 20.9288 4.72329C19.4743 2.74045 17.4252 1.27227 15.0787 0.531857ZM15.0787 22.156C13.9849 22.5098 12.8412 22.6859 11.6914 22.6777H11.6079C8.65678 22.6777 5.82645 21.5064 3.73964 19.4216C1.65282 17.3368 0.480467 14.5093 0.480467 11.5609C0.480467 8.61255 1.65282 5.78499 3.73964 3.7002C5.82645 1.61541 8.65678 0.44418 11.6079 0.44418H11.6914C12.8465 0.461729 13.991 0.669076 15.0787 1.05789C17.305 1.78549 19.2441 3.19743 20.6191 5.092C21.9939 6.98658 22.7343 9.26682 22.7343 11.607C22.7343 13.947 21.9939 16.2273 20.6191 18.1219C19.2441 20.0164 17.305 21.4284 15.0787 22.156Z" fill="#1A1A18"/>
<path d="M19.3375 6.08458C19.6112 6.78383 19.7597 7.52572 19.7763 8.27636C19.7763 11.4851 16.56 12.7871 15.2568 12.7038H15.0814C14.9146 12.7038 14.8225 12.6205 14.8225 12.5328C14.8225 12.2698 14.9102 12.0945 15.0814 12.0945C15.128 12.0468 15.1903 12.0172 15.2568 12.0111C15.6079 12.0111 15.6956 12.0945 16.0379 12.0945C16.3802 12.0945 16.4767 11.8314 16.6478 11.4807C16.7402 11.3742 16.8103 11.2503 16.8539 11.1163C16.8977 10.9823 16.9141 10.8409 16.9023 10.7005C16.9023 10.0079 16.2046 8.61828 15.8624 7.31636C15.8624 7.66266 15.8624 8.43856 15.5201 8.43856C15.43 8.44113 15.341 8.41822 15.2634 8.37247C15.1857 8.32671 15.1227 8.25997 15.0814 8.17994C14.9146 7.92131 14.7391 7.57501 14.568 7.30323C14.6097 7.64827 14.6097 7.99708 14.568 8.34213C14.568 8.68404 14.4759 8.94706 14.3047 8.94706C14.1336 8.94706 13.8659 8.68404 13.8659 8.07035C13.8659 7.45665 13.9493 7.02267 13.9493 5.98377C13.9608 5.25728 13.7506 4.54451 13.3471 3.94008C12.9435 3.33565 12.3654 2.86814 11.6896 2.59965C11.352 2.49645 11.0024 2.43753 10.6497 2.42432C7.60888 2.42432 7.25786 5.19912 7.09113 5.28241C6.92439 5.3657 6.74011 4.76951 5.77478 4.76951C4.64711 4.76951 3.42731 6.24677 2.9973 7.1191C2.25564 8.50568 1.86685 10.0532 1.86523 11.6254C1.87801 14.1936 2.91059 16.6518 4.73617 18.46C6.56175 20.2682 9.03108 21.2786 11.6018 21.2693H11.6852C12.8497 21.2669 14.0019 21.0298 15.0725 20.5722C16.8924 19.8878 18.4594 18.6641 19.5635 17.065C20.6677 15.466 21.2563 13.568 21.2506 11.6254C21.2459 9.60073 20.6076 7.62819 19.4253 5.98377L19.3375 6.08458ZM11.6896 11.1213C10.9527 10.2112 10.5542 9.07427 10.5619 7.90377C10.5619 7.30323 10.7418 7.21116 10.9129 7.21116C11.2639 7.21116 11.4351 7.73281 11.6896 8.42542C11.7527 8.68113 11.8727 8.91935 12.0406 9.12239C12.3039 9.73174 12.4794 10.078 12.7338 10.6873C12.6754 11.1271 12.7052 11.5742 12.8216 12.0024C12.428 11.7283 12.0487 11.4342 11.6852 11.1213H11.6896ZM15.077 17.1092C14.809 17.1036 14.5448 17.0452 14.2994 16.9374C14.0541 16.8297 13.8323 16.6747 13.6469 16.4813C13.4616 16.288 13.3161 16.06 13.2189 15.8105C13.1217 15.5609 13.0747 15.2948 13.0805 15.0271C13.1045 14.5571 13.2562 14.1024 13.5193 13.712C13.958 14.3169 14.5635 14.7553 15.077 14.3169L15.1647 14.2292C15.6034 13.7909 15.2525 13.1903 15.077 13.015C15.3455 13.0091 15.6126 13.0563 15.8628 13.1536C16.1132 13.2509 16.3419 13.3965 16.5358 13.5822C16.7298 13.7678 16.8852 13.9898 16.9932 14.2355C17.1013 14.4811 17.1599 14.7456 17.1655 15.0139C17.1621 15.5675 16.9414 16.0976 16.5508 16.4903C16.1603 16.8829 15.631 17.1067 15.077 17.1137V17.1092Z" fill="#1A1A18"/>
<path d="M51.7585 18.766L54.0226 11.7348L56.7124 3.21753H54.0226H35.1594L30.2012 18.766H38.2879L41.6797 7.82466H47.1513L43.6806 18.766H51.7585Z" fill="#1A1A18"/>
<path d="M72.3546 13.554C72.5301 13.2076 73.3112 10.7792 72.0957 9.21861C71.4025 8.25861 70.0992 7.65367 67.7474 7.65367C66.0999 7.59328 64.479 8.08215 63.1402 9.04325C62.7845 9.29271 62.4629 9.58743 62.1837 9.91994L62.8813 7.92545H56.1899L54.0398 14.6937L51.3457 23.2065H58.4277L60.3407 17.3852C60.6873 17.9068 61.2929 18.7002 63.1227 18.9502C63.4958 19.0193 63.8754 19.0473 64.2547 19.0334C69.1208 19.0334 71.2093 16.1666 72.0781 14.343C72.1972 14.0902 72.2898 13.8257 72.3546 13.554ZM64.9655 13.554C64.79 14.0756 64.3556 15.3074 63.1402 15.6362C62.9235 15.7456 62.6852 15.8054 62.4426 15.8115C60.6874 15.8115 61.1262 14.1633 61.4026 13.3742C61.6658 12.7649 62.0082 11.555 63.1578 11.2044C63.421 11.2044 63.5965 11.121 63.8598 11.121C65.6807 11.121 65.1762 12.7649 64.983 13.554H64.9655Z" fill="#1A1A18"/>
<path d="M184.482 7.9082H183.266H177.356L176.136 11.7351H173.613L174.834 7.9082H167.619L164.755 16.7674L164.145 18.7663H164.755H171.358L172.569 14.8562H175.092L173.877 18.7663H181.002L183.266 11.7351L184.482 7.9082Z" fill="#1A1A18"/>
<path d="M204.995 7.90821H196.825L191.261 12.2523L194.218 3.13013H187.001L183.266 14.9525L182.047 18.7663H183.266H189.177L190.914 13.471L193.267 18.7663H201.69L198.386 12.6863L204.995 7.90821Z" fill="#1A1A18"/>
<path d="M165.272 12.16C165.36 11.8182 165.36 11.5595 165.447 11.2833C165.514 10.9183 165.485 10.5423 165.363 10.1919C165.241 9.84145 165.029 9.52879 164.75 9.28442C163.872 8.32881 161.881 7.63623 157.62 7.63623H155.97C154.365 7.72033 152.768 7.92252 151.191 8.24116L150.235 11.2833C151.96 10.7694 153.742 10.4749 155.54 10.4066H155.979C158.673 10.4899 158.932 11.1825 158.848 11.7217C158.853 11.7689 158.847 11.8166 158.832 11.8614C158.815 11.9061 158.79 11.9468 158.756 11.9803C157.864 11.8695 156.966 11.8109 156.067 11.805H155.979C150.591 11.805 148.331 13.5584 147.374 15.1058C147.222 15.4387 147.106 15.787 147.028 16.1448C146.949 16.4278 146.94 16.7256 147 17.0131C147.061 17.3006 147.189 17.5694 147.374 17.7973C148.068 18.5732 149.634 19.0115 151.547 19.0115C153.088 19.041 154.612 18.6838 155.979 17.9727C156.417 17.622 156.76 17.359 157.019 17.188L156.501 18.7485H163.192L164.759 13.6286L165.272 12.16ZM158.063 14.3518C157.854 14.9057 157.49 15.3879 157.015 15.7414C156.685 15.925 156.336 16.072 155.975 16.1798C155.72 16.2486 155.457 16.2766 155.193 16.2631C154.236 16.2631 153.719 16.0088 153.803 15.4872V15.2242C153.93 14.9494 154.124 14.7107 154.366 14.5293C154.61 14.3481 154.893 14.2298 155.193 14.1852C155.452 14.1852 155.632 14.0976 155.975 14.0976C156.463 14.0154 156.958 13.986 157.453 14.0099H158.151L158.063 14.3518Z" fill="#1A1A18"/>
<path d="M147.711 12.5984C147.932 11.7439 147.808 10.8368 147.365 10.0734C146.667 8.75837 144.758 7.72822 140.849 7.72822C140.091 7.73498 139.335 7.79358 138.585 7.90358C137.457 8.16221 136.592 8.68386 135.368 9.55618C135.544 8.34194 136.847 7.29865 137.975 6.86467C138.158 6.75552 138.367 6.69514 138.58 6.68932C139.668 6.4133 140.773 6.20974 141.889 6.08C142.915 6.00508 143.933 5.83036 144.925 5.55835L145.013 5.38742L146.768 0C146.504 0 146.242 0.0920645 145.987 0.0920645C144.767 0.263024 143.552 0.438367 142.249 0.613709C141.001 0.807957 139.776 1.12813 138.594 1.56932C138.423 1.56932 138.335 1.657 138.155 1.657C136.702 2.3156 135.379 3.22695 134.245 4.34852C132.864 5.95429 131.749 7.77 130.941 9.72712C130.239 11.0954 129.741 12.559 129.462 14.0713C129.375 14.2422 127.984 19.0159 136.676 19.0159C137.313 19.0316 137.951 19.0038 138.585 18.9326C144.495 18.4942 146.579 15.6318 147.36 13.6373C147.518 13.3062 147.636 12.9574 147.711 12.5984ZM140.042 13.2077C139.783 13.9879 139.432 15.2898 138.563 15.7238C138.297 15.8754 137.989 15.937 137.686 15.8992C136.295 15.8992 136.641 14.4219 137.075 13.12C137.167 12.6904 137.344 12.284 137.599 11.9259C137.853 11.5677 138.178 11.2655 138.554 11.0378C138.771 10.9283 139.009 10.8684 139.251 10.8625C140.761 10.8581 140.411 12.16 140.042 13.2077Z" fill="#1A1A18"/>
<path d="M124.163 7.64953C122.528 7.59773 120.919 8.07936 119.583 9.0216C119.245 9.29277 118.925 9.58562 118.626 9.89826L119.319 7.90379H112.597L109.21 18.6742L107.73 23.1937H114.945L116.787 17.3723C117.134 17.894 117.832 18.6874 119.569 18.9372C119.97 19.0095 120.377 19.0375 120.785 19.0205C126.436 19.0205 128.432 15.0271 128.867 13.5498C129.284 11.9937 130.328 7.64953 124.163 7.64953ZM121.377 13.5542C121.206 14.1635 120.771 15.3734 119.556 15.6364C119.338 15.7437 119.1 15.8034 118.858 15.8117C117.103 15.8117 117.542 14.1635 117.814 13.3745C117.985 12.7651 118.507 11.621 119.569 11.2966C119.818 11.1959 120.082 11.1366 120.35 11.1213C122.079 11.1213 121.64 12.7695 121.377 13.5542Z" fill="#1A1A18"/>
<path d="M109.21 15.2899C109.806 14.5108 110.252 13.6279 110.526 12.6862C110.748 12.0055 110.738 11.2713 110.5 10.5963C110.263 9.92143 109.809 9.34342 109.21 8.95136C108.078 8.1667 106.082 7.63629 102.87 7.63629C102.259 7.61802 101.647 7.64586 101.039 7.71958C95.0459 8.15794 92.9573 10.6741 92.1763 12.2346C92.114 12.5339 92.0259 12.8273 91.913 13.1113C91.7419 13.8084 91.3031 15.4566 92.1763 16.7585C93.0538 17.9772 94.9581 19.016 99.1972 19.016C99.8064 19.03 100.417 19.0022 101.022 18.9327C105.564 18.5864 107.902 16.9382 109.21 15.2899ZM102.689 13.0981C102.43 13.8828 102.084 15.1804 101.039 15.702C100.76 15.8132 100.463 15.8727 100.162 15.8774C98.5162 15.8774 99.2059 14.0582 99.5609 13.0981C99.6327 12.6513 99.8015 12.2255 100.056 11.8507C100.31 11.4759 100.643 11.161 101.031 10.9284C101.281 10.8301 101.544 10.7725 101.811 10.7574C103.387 10.7793 102.948 12.2522 102.689 13.1157V13.0981Z" fill="#1A1A18"/>
<path d="M92.7841 7.9082H92.1742H84.0875L78.9625 14.3345L81.31 7.9082H74.8775L72.0955 16.5921L71.4023 18.7663H72.0955H79.919L85.3117 12.1603L82.8765 18.7663H89.3046L92.1742 9.64846L92.7841 7.9082Z" fill="#1A1A18"/>
<path fill-rule="evenodd" clip-rule="evenodd" d="M263.674 6.00562C263.674 6.06698 263.705 6.12834 263.719 6.18971C263.705 6.12834 263.691 6.06698 263.674 6.00562Z" fill="#1A1A18"/>
<path fill-rule="evenodd" clip-rule="evenodd" d="M263.467 5.4314L263.529 5.58481L263.467 5.4314Z" fill="#1A1A18"/>
<path fill-rule="evenodd" clip-rule="evenodd" d="M263.34 5.177L263.415 5.31728L263.34 5.177Z" fill="#1A1A18"/>
<path fill-rule="evenodd" clip-rule="evenodd" d="M263.578 5.70752C263.578 5.76012 263.613 5.81711 263.632 5.87409C263.618 5.81711 263.601 5.7645 263.578 5.70752Z" fill="#1A1A18"/>
<path fill-rule="evenodd" clip-rule="evenodd" d="M263.805 6.66772C263.805 6.74662 263.805 6.82991 263.831 6.90881C263.822 6.82991 263.818 6.74662 263.805 6.66772Z" fill="#1A1A18"/>
<path fill-rule="evenodd" clip-rule="evenodd" d="M263.748 6.32568C263.748 6.39143 263.77 6.46159 263.784 6.53172C263.779 6.46159 263.779 6.39143 263.748 6.32568Z" fill="#1A1A18"/>
<path fill-rule="evenodd" clip-rule="evenodd" d="M263.844 7.03149C263.844 7.15861 263.844 7.28572 263.844 7.42161C263.857 7.28572 263.853 7.15861 263.844 7.03149Z" fill="#1A1A18"/>
<path fill-rule="evenodd" clip-rule="evenodd" d="M251.12 10.3101C251.058 10.4605 250.986 10.607 250.904 10.7485C250.986 10.607 251.058 10.4606 251.12 10.3101Z" fill="#1A1A18"/>
<path fill-rule="evenodd" clip-rule="evenodd" d="M250.844 10.8188L250.905 10.7224L250.844 10.8188Z" fill="#1A1A18"/>
<path fill-rule="evenodd" clip-rule="evenodd" d="M251.418 9.27588C251.374 9.54603 251.303 9.81158 251.211 10.0693C251.304 9.81158 251.374 9.54605 251.418 9.27588Z" fill="#1A1A18"/>
<path fill-rule="evenodd" clip-rule="evenodd" d="M250.844 16.5305L252.2 18.7574L250.844 16.5305Z" fill="#1A1A18"/>
<path fill-rule="evenodd" clip-rule="evenodd" d="M251.493 8.33332C251.494 8.5486 251.482 8.76374 251.458 8.97772C251.482 8.76374 251.494 8.5486 251.493 8.33332C251.54 7.26364 251.317 6.19938 250.844 5.23853C251.316 6.19944 251.54 7.26365 251.493 8.33332Z" fill="#1A1A18"/>
<path fill-rule="evenodd" clip-rule="evenodd" d="M250.654 11.0904C250.72 11.0072 250.782 10.915 250.839 10.8186C250.782 10.915 250.72 11.0072 250.654 11.0904Z" fill="white"/>
<path fill-rule="evenodd" clip-rule="evenodd" d="M263.135 4.84424L263.201 4.94067L263.135 4.84424Z" fill="white"/>
<path fill-rule="evenodd" clip-rule="evenodd" d="M262.428 4.11182L262.477 4.15135L262.428 4.11182Z" fill="white"/>
<path fill-rule="evenodd" clip-rule="evenodd" d="M261.717 3.68677L261.809 3.73059L261.717 3.68677Z" fill="white"/>
<path fill-rule="evenodd" clip-rule="evenodd" d="M262.619 4.26978L262.685 4.33553L262.619 4.26978Z" fill="white"/>
<path fill-rule="evenodd" clip-rule="evenodd" d="M262.799 4.44067L262.869 4.51957L262.799 4.44067Z" fill="white"/>
<path fill-rule="evenodd" clip-rule="evenodd" d="M262.971 4.61157L263.042 4.69924L262.971 4.61157Z" fill="white"/>
<path fill-rule="evenodd" clip-rule="evenodd" d="M262.172 3.93677L262.229 3.97187L262.172 3.93677Z" fill="white"/>
<path fill-rule="evenodd" clip-rule="evenodd" d="M262.023 3.84471L261.967 3.81396L262.023 3.84471Z" fill="white"/>
<path fill-rule="evenodd" clip-rule="evenodd" d="M263.341 5.16408L263.287 5.06763L263.341 5.16408Z" fill="white"/>
<path fill-rule="evenodd" clip-rule="evenodd" d="M261.492 3.59009L261.589 3.62955L261.492 3.59009Z" fill="white"/>
<path fill-rule="evenodd" clip-rule="evenodd" d="M260.816 3.37134L260.917 3.39764L260.816 3.37134Z" fill="white"/>
<path fill-rule="evenodd" clip-rule="evenodd" d="M260.594 3.31836L260.695 3.34027L260.594 3.31836Z" fill="white"/>
<path fill-rule="evenodd" clip-rule="evenodd" d="M261.045 3.43237L261.146 3.46306L261.045 3.43237Z" fill="white"/>
<path fill-rule="evenodd" clip-rule="evenodd" d="M261.268 3.50684L261.369 3.54192L261.268 3.50684Z" fill="white"/>
<path fill-rule="evenodd" clip-rule="evenodd" d="M263.779 6.52734C263.779 6.57118 263.779 6.6194 263.802 6.66323C263.779 6.6194 263.779 6.57556 263.779 6.52734Z" fill="white"/>
<path fill-rule="evenodd" clip-rule="evenodd" d="M263.832 6.90869C263.832 6.94815 263.832 6.98761 263.832 7.03145C263.841 6.992 263.836 6.95253 263.832 6.90869Z" fill="white"/>
<path fill-rule="evenodd" clip-rule="evenodd" d="M263.414 5.31763L263.468 5.436L263.414 5.31763Z" fill="white"/>
<path fill-rule="evenodd" clip-rule="evenodd" d="M263.633 5.87402L263.674 6.00552L263.633 5.87402Z" fill="white"/>
<path fill-rule="evenodd" clip-rule="evenodd" d="M263.717 6.1897C263.717 6.23354 263.717 6.28175 263.749 6.32559C263.739 6.27737 263.726 6.23354 263.717 6.1897Z" fill="white"/>
<path fill-rule="evenodd" clip-rule="evenodd" d="M263.529 5.58496L263.578 5.70772L263.529 5.58496Z" fill="white"/>
<path fill-rule="evenodd" clip-rule="evenodd" d="M263.34 3.14331V3.84466C264.06 4.56358 264.656 5.6814 264.656 7.41728C264.687 8.0128 264.585 8.60777 264.358 9.15901C264.13 9.71021 263.782 10.2039 263.34 10.6041C263.961 10.9805 264.473 11.5102 264.829 12.1421C265.185 12.774 265.372 13.4868 265.372 14.2118C265.389 14.8469 265.275 15.4787 265.038 16.0683C264.801 16.6579 264.446 17.1927 263.994 17.6397C263.791 17.8437 263.573 18.0314 263.34 18.2009V18.7532H268.667V3.14331H263.34Z" fill="#1A1A18"/>
<path fill-rule="evenodd" clip-rule="evenodd" d="M264.587 14.2117C264.593 13.707 264.484 13.2076 264.266 12.7516C264.05 12.2958 263.732 11.8955 263.336 11.5816C262.8 11.1512 262.177 10.8402 261.51 10.6697C262.256 10.4957 262.908 10.0462 263.336 9.41169C263.709 8.8181 263.892 8.12579 263.863 7.42593C263.863 7.29004 263.863 7.16293 263.863 7.03581C263.863 6.99197 263.863 6.95251 263.863 6.91306C263.863 6.87361 263.863 6.74649 263.836 6.67197C263.809 6.59745 263.836 6.57992 263.814 6.53608C263.792 6.49224 263.814 6.40017 263.779 6.33004C263.744 6.2599 263.779 6.23798 263.748 6.19415C263.717 6.15031 263.717 6.07141 263.705 6.01004L263.665 5.87855C263.665 5.82156 263.63 5.76896 263.613 5.71197L263.564 5.58922L263.503 5.4358L263.45 5.32182L263.375 5.18154L263.323 5.08512L263.239 4.95362L263.173 4.85717L263.081 4.73444L263.011 4.64677L262.91 4.53279L262.84 4.45389L262.726 4.3443L262.66 4.27853L262.515 4.16017L262.467 4.12073L262.27 3.98045L262.213 3.94538L262.063 3.85335L262.006 3.82266H261.985L261.853 3.7525L261.761 3.70868L261.634 3.65169L261.537 3.61223L261.41 3.56401L261.309 3.52896L261.182 3.48511L261.081 3.45442L260.958 3.41937L260.857 3.39304L260.733 3.36238L260.633 3.34044L260.505 3.31414H260.409H260.282H260.19H260.053H259.97H259.826H259.756L259.352 3.28784H255.666H250.844V4.02428C251.722 4.901 252.296 6.29498 252.301 8.47799C252.328 9.17038 252.212 9.86096 251.961 10.507C251.711 11.1532 251.331 11.7411 250.844 12.2347V15.1234L252.884 18.4813L253.139 18.9196H259.335C260.808 18.8538 262.218 18.295 263.336 17.3328C263.766 16.9398 264.101 16.4551 264.318 15.9148C264.534 15.3744 264.626 14.7923 264.587 14.2117ZM256.179 6.75965H257.233C257.398 6.74402 257.566 6.76153 257.725 6.8112C257.885 6.86088 258.033 6.9417 258.161 7.04897C258.288 7.15625 258.394 7.28785 258.47 7.43609C258.546 7.58434 258.593 7.74629 258.606 7.91252C258.606 8.55691 258.005 9.05662 257.206 9.08292H256.179V6.75965ZM257.636 14.9876H256.196V12.4101H257.834C258.002 12.4077 258.17 12.4392 258.326 12.5028C258.482 12.5662 258.625 12.6606 258.743 12.78C258.862 12.8994 258.956 13.0414 259.019 13.1978C259.082 13.3541 259.113 13.5215 259.111 13.6901C259.083 14.056 258.914 14.3968 258.638 14.6394C258.363 14.8819 258.003 15.0069 257.636 14.9876Z" fill="#1A1A18"/>
<path fill-rule="evenodd" clip-rule="evenodd" d="M250.036 15.2066L248.421 12.5502C248.763 12.4693 249.091 12.341 249.395 12.1688C249.547 12.0901 249.694 12.0023 249.835 11.9057L250.054 11.7349C250.124 11.6778 250.195 11.6165 250.264 11.5507C250.361 11.4577 250.454 11.3597 250.541 11.257L250.673 11.0904C250.738 11.0072 250.8 10.9151 250.857 10.8187L250.918 10.7223C250.999 10.5808 251.071 10.4344 251.134 10.2839C251.169 10.2093 251.199 10.1305 251.226 10.0515C251.318 9.79389 251.387 9.52829 251.431 9.2581C251.449 9.16166 251.462 9.06231 251.471 8.96003C251.494 8.74604 251.506 8.53094 251.506 8.31566C251.553 7.24599 251.33 6.18178 250.857 5.22086C250.779 5.07644 250.69 4.93733 250.593 4.80442C250.502 4.67922 250.403 4.56056 250.295 4.44935C250.216 4.37045 250.137 4.29592 250.054 4.22578L249.901 4.10306C249.821 4.04607 249.743 3.98908 249.659 3.93648L249.404 3.79182C249.27 3.72009 249.132 3.6557 248.992 3.59894C248.828 3.53478 248.661 3.47918 248.492 3.43236C248.139 3.33529 247.78 3.26496 247.416 3.22196C247.232 3.20004 247.044 3.18251 246.855 3.16936L246.284 3.13867H245.995H245.416H238V18.7529H243.328V12.8395L246.276 18.7529H252.195L250.844 16.5261L250.036 15.2066ZM245.828 9.26688C245.77 9.393 245.693 9.50971 245.6 9.61321L245.499 9.71397C245.429 9.77804 245.352 9.83529 245.271 9.88495C245.014 10.0435 244.718 10.127 244.415 10.126H243.297V7.3381H244.446H244.604C244.703 7.34673 244.802 7.36435 244.898 7.39073L245.069 7.45208C245.231 7.51875 245.379 7.61377 245.508 7.73264C245.574 7.79514 245.635 7.86417 245.688 7.93867L245.762 8.05263C245.879 8.2552 245.94 8.4852 245.938 8.71894C245.941 8.90733 245.904 9.09419 245.828 9.26688Z" fill="#1A1A18"/>
<path fill-rule="evenodd" clip-rule="evenodd" d="M224.196 25.3457H225.784C225.687 25.813 225.432 26.2332 225.065 26.5381C224.719 26.8583 224.267 27.0381 223.797 27.0422C223.541 27.0533 223.287 27.0001 223.056 26.8876C222.826 26.775 222.628 26.6066 222.48 26.3978C222.18 25.9762 222.026 25.4683 222.041 24.9512C222.042 24.7751 222.055 24.5993 222.081 24.4252C222.184 23.7602 222.466 23.1358 222.897 22.6192C223.097 22.3517 223.357 22.1335 223.655 21.9816C223.953 21.8296 224.283 21.7479 224.618 21.7425C224.974 21.7356 225.323 21.8552 225.6 22.08C225.861 22.3037 226.048 22.602 226.136 22.9348L227.534 22.2422C227.356 21.7029 227.001 21.2395 226.526 20.9271C226.03 20.6107 225.451 20.4489 224.863 20.4625C224.331 20.4584 223.805 20.5607 223.313 20.7632C222.822 20.9657 222.376 21.2643 222.002 21.6416C221.231 22.3882 220.728 23.3682 220.571 24.4296C220.532 24.6656 220.51 24.9046 220.51 25.1441C220.478 25.9673 220.759 26.772 221.295 27.3972C221.573 27.7101 221.916 27.9571 222.301 28.1202C222.686 28.2832 223.102 28.3583 223.52 28.3397C224.039 28.3499 224.555 28.2479 225.032 28.0406C225.508 27.8333 225.934 27.5257 226.28 27.1386C226.983 26.3557 227.437 25.38 227.579 24.3375L227.609 24.149H224.38L224.196 25.3457Z" fill="#1A1A18"/>
<path fill-rule="evenodd" clip-rule="evenodd" d="M235.059 23.7677L235.138 23.2635H233.752L232.975 28.1337H234.362L234.708 25.9419C234.754 25.562 234.868 25.1937 235.046 24.8548C235.148 24.6866 235.292 24.5486 235.465 24.4553C235.637 24.3619 235.832 24.3168 236.029 24.3244C236.228 24.3192 236.423 24.3861 236.577 24.5129L236.946 23.2242C236.769 23.1485 236.58 23.1082 236.388 23.1058C236.13 23.1028 235.875 23.1613 235.644 23.2764C235.412 23.3915 235.213 23.5599 235.059 23.7677Z" fill="#1A1A18"/>
<path fill-rule="evenodd" clip-rule="evenodd" d="M244.91 23.1013C244.188 23.0886 243.487 23.3486 242.949 23.829C242.62 24.1285 242.358 24.4927 242.177 24.8986C241.996 25.3044 241.902 25.7432 241.9 26.1874C241.889 26.4679 241.935 26.7479 242.037 27.0096C242.139 27.2713 242.294 27.5093 242.492 27.7085C242.706 27.9056 242.957 28.0583 243.23 28.1576C243.504 28.257 243.795 28.3011 244.085 28.2871C244.809 28.3007 245.512 28.0426 246.055 27.5638C246.607 27.0843 246.966 26.4206 247.064 25.6964C247.09 25.537 247.104 25.3758 247.104 25.2142C247.116 24.9312 247.07 24.6486 246.967 24.3844C246.864 24.1203 246.708 23.8804 246.507 23.68C246.293 23.4823 246.041 23.3293 245.767 23.2299C245.492 23.1306 245.201 23.0869 244.91 23.1013ZM245.283 26.5381C245.17 26.6991 245.02 26.8312 244.846 26.9233C244.673 27.0156 244.48 27.0653 244.283 27.0685C244.143 27.0713 244.005 27.0409 243.88 26.9799C243.755 26.9189 243.646 26.8291 243.563 26.7178C243.396 26.4927 243.311 26.2174 243.321 25.9375C243.325 25.5415 243.463 25.1583 243.712 24.8504C243.828 24.6891 243.98 24.557 244.156 24.465C244.332 24.3729 244.527 24.3232 244.726 24.32C244.861 24.3139 244.997 24.3406 245.119 24.3979C245.242 24.4551 245.35 24.5412 245.432 24.6488C245.605 24.8782 245.695 25.1595 245.686 25.4466C245.682 25.8434 245.54 26.2264 245.283 26.5293V26.5381Z" fill="#1A1A18"/>
<path fill-rule="evenodd" clip-rule="evenodd" d="M255.943 25.9026C255.809 26.7151 255.474 27.1213 254.938 27.1213C254.503 27.1213 254.285 26.8699 254.285 26.3672C254.288 26.2104 254.311 26.0545 254.351 25.9026L254.759 23.2725H253.372L252.933 26.1393C252.902 26.3159 252.886 26.4948 252.885 26.6741C252.885 27.7583 253.514 28.3004 254.772 28.3004C256.234 28.3004 257.078 27.58 257.303 26.1393L257.743 23.2725H256.356L255.943 25.9026Z" fill="#1A1A18"/>
<path fill-rule="evenodd" clip-rule="evenodd" d="M268.166 23.7373C268.003 23.5297 267.792 23.3638 267.551 23.2533C267.312 23.1429 267.048 23.0909 266.784 23.1018C266.514 23.0987 266.248 23.1507 265.999 23.2548C265.751 23.3588 265.527 23.5126 265.341 23.7066L265.411 23.2683H264.024L262.844 30.7467H264.217L264.691 27.6782C264.812 27.8846 264.99 28.0522 265.202 28.1611C265.415 28.2698 265.655 28.3152 265.894 28.2919C266.275 28.2908 266.65 28.2007 266.99 28.0287C267.329 27.8567 267.624 27.6075 267.85 27.3012C268.342 26.7171 268.609 25.9775 268.605 25.2146C268.638 24.6859 268.482 24.1628 268.166 23.7373ZM266.806 26.5297C266.693 26.6894 266.544 26.8205 266.371 26.9125C266.198 27.0046 266.006 27.0552 265.81 27.0601C265.67 27.0629 265.533 27.0325 265.408 26.9715C265.282 26.9105 265.174 26.8207 265.09 26.7094C264.925 26.4802 264.84 26.2028 264.849 25.9204C264.85 25.525 264.991 25.1429 265.249 24.842C265.361 24.6813 265.509 24.5494 265.683 24.4572C265.856 24.365 266.048 24.3151 266.245 24.3116C266.382 24.3072 266.518 24.3369 266.642 24.3982C266.765 24.4594 266.871 24.5501 266.951 24.6623C267.123 24.8852 267.211 25.1613 267.201 25.4425C267.199 25.8397 267.061 26.2241 266.806 26.5297Z" fill="#1A1A18"/>
<path fill-rule="evenodd" clip-rule="evenodd" d="M220.641 3.12573H236.258L236.261 18.74L220.641 18.7312V3.12573Z" fill="#D8D9D9"/>
<path fill-rule="evenodd" clip-rule="evenodd" d="M220.641 3.12573H236.258L236.261 18.74L220.641 18.7312V3.12573Z" fill="#1A1A18"/>
<path fill-rule="evenodd" clip-rule="evenodd" d="M221.063 18.3015L221.059 3.56396H235.819L235.806 18.3059L221.063 18.3015Z" fill="#FFEC00"/>
<path fill-rule="evenodd" clip-rule="evenodd" d="M228.427 12.8089L233.126 17.4949L234.964 15.6583L230.261 10.9634L231.178 10.0561V8.22808L231.832 7.57494V9.09163L232.472 9.72285L234.768 7.42589L235.386 8.03959C235.362 6.97989 234.93 5.97024 234.18 5.22097C234 5.01996 233.783 4.85774 233.538 4.74437C233.294 4.63101 233.03 4.56892 232.76 4.56194C232.492 4.55494 232.224 4.60322 231.975 4.70376C231.724 4.8043 231.498 4.95496 231.309 5.14643L229.116 7.35576L229.669 7.90809L228.449 9.12232L227.229 7.90809L227.782 7.35576L225.567 5.14207C225.377 4.95059 225.151 4.79992 224.901 4.69937C224.652 4.59883 224.384 4.55056 224.115 4.55755C223.846 4.56453 223.582 4.62663 223.337 4.73998C223.093 4.85335 222.876 5.01557 222.696 5.21658C221.948 5.96572 221.523 6.97723 221.512 8.0352L222.108 7.4215L224.403 9.71852L225.044 9.08288V7.57494L225.697 8.22808V10.0516L226.615 10.9634L221.955 15.6144L223.793 17.4467L228.427 12.8089Z" fill="#1A1A18"/>
<path d="M175 48L175 49L95 49L95 48L175 48Z" fill="#23367E"/>
<path d="M135.64 77.3121C135.594 80.9338 138.868 82.955 141.334 84.1566C143.868 85.3896 144.719 86.1802 144.709 87.2827C144.69 88.9702 142.688 89.7149 140.814 89.7439C137.545 89.7947 135.645 88.8614 134.134 88.1555L132.956 93.6654C134.472 94.3641 137.279 94.9734 140.19 95C147.023 95 151.493 91.6273 151.517 86.3978C151.544 79.7612 142.337 79.3937 142.4 76.4272C142.422 75.5278 143.28 74.568 145.161 74.3238C146.092 74.2005 148.662 74.1062 151.575 75.448L152.719 70.117C151.152 69.5464 149.138 69 146.631 69C140.2 69 135.676 72.4186 135.64 77.3121ZM163.707 69.4594C162.46 69.4594 161.408 70.1871 160.939 71.3041L151.179 94.6083H158.006L159.365 90.8536H167.709L168.497 94.6083H174.514L169.263 69.4594H163.707ZM164.662 76.2531L166.633 85.6967H161.236L164.662 76.2531ZM127.362 69.4594L121.98 94.6083H128.486L133.866 69.4594H127.362ZM117.737 69.4594L110.965 86.5767L108.226 72.0221C107.904 70.3974 106.635 69.4594 105.225 69.4594H94.1547L94 70.1895C96.2726 70.6827 98.8548 71.4781 100.419 72.3292C101.376 72.849 101.65 73.3035 101.964 74.539L107.152 94.6083H114.028L124.569 69.4594H117.737Z" fill="url(#paint0_linear)"/>
<defs>
<linearGradient id="paint0_linear" x1="131.016" y1="95.5216" x2="131.768" y2="68.8192" gradientUnits="userSpaceOnUse">
<stop stop-color="#222357"/>
<stop offset="1" stop-color="#254AA5"/>
</linearGradient>
</defs>
</svg>
