<svg width="271" height="31" viewBox="0 0 271 31" fill="none" xmlns="http://www.w3.org/2000/svg">
<g clip-path="url(#clip0)">
<path fill-rule="evenodd" clip-rule="evenodd" d="M11.745 22.8613C9.52519 22.8613 7.35525 22.2036 5.50963 20.9714C3.664 19.7393 2.22558 17.9881 1.37631 15.9391C0.527029 13.8902 0.305045 11.6357 0.738428 9.46074C1.17181 7.28577 2.24109 5.28804 3.81103 3.72024C5.38097 2.15245 7.38105 1.08499 9.5583 0.652885C11.7356 0.220781 13.9922 0.443432 16.0427 1.29269C18.0933 2.14196 19.8457 3.57966 21.0783 5.42399C22.3109 7.26831 22.9684 9.4364 22.9675 11.6541C22.9704 13.127 22.6821 14.586 22.1191 15.9474C21.5561 17.3087 20.7295 18.5455 19.6867 19.5868C18.644 20.6282 17.4056 21.4535 16.0428 22.0153C14.6799 22.5773 13.2193 22.8647 11.745 22.8613Z" fill="#FFEC00"/>
<path fill-rule="evenodd" clip-rule="evenodd" d="M11.745 22.8613C9.52519 22.8613 7.35525 22.2036 5.50963 20.9714C3.664 19.7393 2.22558 17.9881 1.37631 15.9391C0.527029 13.8902 0.305045 11.6357 0.738428 9.46074C1.17181 7.28577 2.24109 5.28804 3.81103 3.72024C5.38097 2.15245 7.38105 1.08499 9.5583 0.652885C11.7356 0.220781 13.9922 0.443432 16.0427 1.29269C18.0933 2.14196 19.8457 3.57966 21.0783 5.42399C22.3109 7.26831 22.9684 9.4364 22.9675 11.6541C22.9704 13.127 22.6821 14.586 22.1191 15.9474C21.5561 17.3087 20.7295 18.5455 19.6867 19.5868C18.644 20.6282 17.4056 21.4535 16.0428 22.0153C14.6799 22.5773 13.2193 22.8647 11.745 22.8613Z" fill="#FFEC00"/>
<path d="M15.2514 0.530494C14.1493 0.168426 12.9953 -0.0107935 11.8351 -3.08355e-05H11.751C8.64613 -3.08355e-05 5.66838 1.23219 3.47288 3.42556C1.27737 5.61894 0.0439453 8.59381 0.0439453 11.6957C0.0439453 14.7976 1.27737 17.7725 3.47288 19.9658C5.66838 22.1592 8.64613 23.3914 11.751 23.3914H11.8351C12.9999 23.3704 14.1535 23.1614 15.2514 22.7725C17.6179 22.0258 19.6846 20.545 21.1515 18.5452C22.6184 16.5456 23.4093 14.1308 23.4093 11.6515C23.4093 9.17222 22.6184 6.75748 21.1515 4.75772C19.6846 2.75795 17.6179 1.27723 15.2514 0.530494ZM15.2514 22.3393C14.1482 22.6961 12.9948 22.8737 11.8351 22.8654H11.751C8.77465 22.8654 5.92015 21.6841 3.81551 19.5815C1.71088 17.4789 0.528515 14.6272 0.528515 11.6537C0.528515 8.68019 1.71088 5.82848 3.81551 3.72589C5.92015 1.6233 8.77465 0.442068 11.751 0.442068H11.8351C13.0001 0.459766 14.1544 0.668883 15.2514 1.06102C17.4967 1.79483 19.4524 3.21883 20.8391 5.12957C22.2257 7.04033 22.9724 9.34004 22.9724 11.7002C22.9724 14.0602 22.2257 16.3599 20.8391 18.2707C19.4524 20.1814 17.4967 21.6054 15.2514 22.3393Z" fill="#1A1A18"/>
<path d="M19.5467 6.13195C19.8228 6.83717 19.9726 7.58539 19.9893 8.34244C19.9893 11.5786 16.7456 12.8917 15.4312 12.8077H15.2543C15.0861 12.8077 14.9931 12.7237 14.9931 12.6352C14.9931 12.37 15.0817 12.1932 15.2543 12.1932C15.3013 12.145 15.3641 12.1152 15.4312 12.1091C15.7853 12.1091 15.8738 12.1932 16.219 12.1932C16.5642 12.1932 16.6615 11.9278 16.8341 11.5742C16.9272 11.4667 16.998 11.3418 17.042 11.2066C17.0861 11.0715 17.1026 10.9289 17.0907 10.7872C17.0907 10.0888 16.3871 8.68728 16.0419 7.37424C16.0419 7.72351 16.0419 8.50603 15.6968 8.50603C15.6059 8.50862 15.5162 8.48552 15.4379 8.43938C15.3595 8.39322 15.2959 8.32591 15.2543 8.2452C15.0861 7.98436 14.9091 7.6351 14.7365 7.361C14.7786 7.70899 14.7786 8.06078 14.7365 8.40877C14.7365 8.75361 14.6436 9.01887 14.471 9.01887C14.2984 9.01887 14.0284 8.75361 14.0284 8.13467C14.0284 7.51573 14.1125 7.07805 14.1125 6.03028C14.1241 5.29758 13.9122 4.57872 13.5052 3.96914C13.0981 3.35954 12.5151 2.88804 11.8335 2.61726C11.493 2.51318 11.1404 2.45376 10.7847 2.44043C7.71798 2.44043 7.36397 5.23893 7.19581 5.32293C7.02765 5.40693 6.84179 4.80565 5.86823 4.80565C4.73093 4.80565 3.5007 6.29552 3.06702 7.1753C2.31904 8.57372 1.92693 10.1345 1.92529 11.72C1.93818 14.3102 2.97957 16.7894 4.82075 18.613C6.66191 20.4367 9.15233 21.4557 11.745 21.4463H11.8291C13.0036 21.4439 14.1656 21.2048 15.2454 20.7433C17.0807 20.053 18.6611 18.8189 19.7747 17.2062C20.8883 15.5935 21.482 13.6792 21.4762 11.72C21.4714 9.67812 20.8277 7.68874 19.6353 6.03028L19.5467 6.13195ZM11.8335 11.2116C11.0904 10.2939 10.6885 9.14716 10.6962 7.96667C10.6962 7.361 10.8777 7.26815 11.0502 7.26815C11.4042 7.26815 11.5769 7.79426 11.8335 8.49277C11.8972 8.75067 12.0182 8.99092 12.1876 9.1957C12.4531 9.81025 12.6301 10.1595 12.8867 10.774C12.8278 11.2176 12.8578 11.6684 12.9752 12.1003C12.5782 11.8239 12.1957 11.5273 11.8291 11.2116H11.8335ZM15.2499 17.2507C14.9796 17.245 14.7131 17.1861 14.4656 17.0774C14.2182 16.9688 13.9946 16.8125 13.8076 16.6175C13.6206 16.4225 13.4739 16.1926 13.3759 15.9409C13.2778 15.6892 13.2305 15.4208 13.2363 15.1508C13.2605 14.6768 13.4135 14.2183 13.6788 13.8245C14.1214 14.4346 14.732 14.8767 15.2499 14.4346L15.3383 14.3461C15.7808 13.9041 15.4268 13.2983 15.2499 13.1215C15.5207 13.1156 15.79 13.1632 16.0424 13.2613C16.2949 13.3595 16.5255 13.5063 16.7211 13.6936C16.9168 13.8807 17.0735 14.1046 17.1825 14.3524C17.2915 14.6001 17.3506 14.8669 17.3562 15.1375C17.3528 15.6958 17.1302 16.2305 16.7363 16.6265C16.3424 17.0225 15.8086 17.2482 15.2499 17.2552V17.2507Z" fill="#1A1A18"/>
<path d="M52.2449 18.9218L54.5283 11.8305L57.241 3.24048H54.5283H35.504L30.5034 18.9218H38.6592L42.08 7.88694H47.5983L44.0979 18.9218H52.2449Z" fill="#1A1A18"/>
<path d="M73.0174 13.6654C73.1944 13.3161 73.9821 10.8669 72.7563 9.29305C72.0571 8.32485 70.7427 7.71475 68.3709 7.71475C66.7093 7.65385 65.0745 8.14688 63.7243 9.11619C63.3656 9.36778 63.0413 9.66502 62.7596 10.0004L63.4632 7.98885H56.7146L54.5462 14.8149L51.8291 23.4004H58.9716L60.9009 17.5294C61.2505 18.0554 61.8613 18.8556 63.7066 19.1077C64.0829 19.1774 64.4658 19.2056 64.8483 19.1917C69.756 19.1917 71.8624 16.3003 72.7386 14.4612C72.8586 14.2062 72.952 13.9395 73.0174 13.6654ZM65.5652 13.6654C65.3882 14.1915 64.9501 15.4338 63.7243 15.7654C63.5058 15.8757 63.2654 15.9361 63.0207 15.9422C61.2506 15.9422 61.6931 14.2799 61.9718 13.4841C62.2374 12.8696 62.5826 11.6494 63.742 11.2958C64.0075 11.2958 64.1845 11.2117 64.4501 11.2117C66.2865 11.2117 65.7777 12.8696 65.5829 13.6654H65.5652Z" fill="#1A1A18"/>
<path d="M186.101 7.97119H184.875H178.914L177.684 11.8307H175.139L176.37 7.97119H169.094L166.205 16.906L165.59 18.922H166.205H172.865L174.087 14.9785H176.63L175.406 18.922H182.591L184.875 11.8307L186.101 7.97119Z" fill="#1A1A18"/>
<path d="M206.789 7.97123H198.55L192.939 12.3525L195.921 3.15234H188.642L184.875 15.0757L183.646 18.922H184.875H190.836L192.589 13.5815L194.961 18.922H203.457L200.125 12.7901L206.789 7.97123Z" fill="#1A1A18"/>
<path d="M166.727 12.2594C166.816 11.9147 166.816 11.6538 166.904 11.3753C166.972 11.0071 166.942 10.6279 166.819 10.2745C166.696 9.92107 166.482 9.60574 166.201 9.35929C165.315 8.39552 163.307 7.69702 159.01 7.69702H157.346C155.727 7.78184 154.116 7.98576 152.526 8.30712L151.562 11.3753C153.301 10.857 155.098 10.56 156.912 10.4911H157.355C160.071 10.5751 160.333 11.2735 160.248 11.8174C160.253 11.865 160.247 11.9131 160.232 11.9583C160.215 12.0034 160.19 12.0444 160.156 12.0782C159.255 11.9664 158.35 11.9073 157.444 11.9014H157.355C151.921 11.9014 149.641 13.6697 148.677 15.2304C148.523 15.5661 148.406 15.9174 148.327 16.2782C148.248 16.5637 148.238 16.864 148.299 17.1539C148.361 17.4439 148.49 17.715 148.677 17.9448C149.376 18.7274 150.955 19.1694 152.885 19.1694C154.439 19.1992 155.976 18.8389 157.355 18.1217C157.797 17.768 158.142 17.5028 158.403 17.3304L157.881 18.9042H164.629L166.209 13.7406L166.727 12.2594ZM159.457 14.4699C159.246 15.0286 158.879 15.5149 158.399 15.8714C158.067 16.0565 157.715 16.2049 157.351 16.3136C157.093 16.3829 156.828 16.4112 156.562 16.3975C155.597 16.3975 155.076 16.1411 155.16 15.615V15.3497C155.288 15.0727 155.484 14.8319 155.729 14.649C155.974 14.4662 156.26 14.3469 156.562 14.3019C156.823 14.3019 157.005 14.2136 157.351 14.2136C157.843 14.1307 158.343 14.101 158.842 14.1252H159.545L159.457 14.4699Z" fill="#1A1A18"/>
<path d="M149.017 12.7016C149.24 11.8398 149.115 10.925 148.668 10.155C147.964 8.82876 146.039 7.78982 142.096 7.78982C141.332 7.79663 140.569 7.85573 139.813 7.96667C138.675 8.22751 137.803 8.75362 136.569 9.63339C136.746 8.40877 138.061 7.35657 139.197 6.91889C139.382 6.80881 139.593 6.74792 139.808 6.74205C140.906 6.46367 142.02 6.25837 143.145 6.12752C144.18 6.05196 145.206 5.87575 146.207 5.60142L146.296 5.42902L148.066 -0.00439453C147.8 -0.00439453 147.535 0.0884561 147.279 0.0884561C146.048 0.260875 144.822 0.437716 143.508 0.614555C142.25 0.810461 141.014 1.13337 139.822 1.57833C139.649 1.57833 139.56 1.66676 139.379 1.66676C137.914 2.33098 136.579 3.25011 135.436 4.38125C134.044 6.00074 132.918 7.83195 132.104 9.80579C131.396 11.1858 130.893 12.6619 130.613 14.1871C130.524 14.3594 129.122 19.1739 137.887 19.1739C138.53 19.1897 139.174 19.1617 139.813 19.0899C145.774 18.6478 147.875 15.7609 148.663 13.7494C148.822 13.4154 148.942 13.0637 149.017 12.7016ZM141.282 13.3161C141.021 14.103 140.667 15.416 139.79 15.8537C139.522 16.0066 139.212 16.0687 138.906 16.0306C137.503 16.0306 137.852 14.5406 138.291 13.2276C138.382 12.7944 138.562 12.3845 138.819 12.0234C139.075 11.6621 139.403 11.3573 139.782 11.1276C140.001 11.0172 140.24 10.9568 140.485 10.9508C142.007 10.9464 141.654 12.2594 141.282 13.3161Z" fill="#1A1A18"/>
<path d="M125.267 7.71036C123.617 7.65811 121.995 8.14385 120.647 9.09414C120.307 9.36763 119.984 9.66298 119.683 9.97829L120.381 7.96678H113.602L110.186 18.8292L108.694 23.3872H115.97L117.828 17.5161C118.178 18.0423 118.881 18.8424 120.634 19.0944C121.038 19.1674 121.448 19.1956 121.859 19.1784C127.559 19.1784 129.573 15.1509 130.011 13.661C130.432 12.0916 131.484 7.71036 125.267 7.71036ZM122.457 13.6654C122.284 14.2799 121.846 15.5002 120.621 15.7654C120.401 15.8736 120.161 15.9339 119.916 15.9422C118.147 15.9422 118.589 14.2799 118.864 13.4842C119.036 12.8696 119.562 11.7157 120.634 11.3886C120.885 11.287 121.151 11.2272 121.421 11.2118C123.164 11.2118 122.722 12.8741 122.457 13.6654Z" fill="#1A1A18"/>
<path d="M110.186 15.4159C110.786 14.6301 111.236 13.7396 111.513 12.7899C111.736 12.1034 111.727 11.3629 111.487 10.6822C111.247 10.0015 110.789 9.41859 110.186 9.02318C109.044 8.23182 107.031 7.69688 103.791 7.69688C103.175 7.67846 102.558 7.70653 101.945 7.78088C95.9006 8.22298 93.7941 10.7606 93.0065 12.3345C92.9436 12.6363 92.8548 12.9322 92.7409 13.2187C92.5684 13.9217 92.1259 15.584 93.0065 16.897C93.8915 18.126 95.812 19.1738 100.087 19.1738C100.702 19.1879 101.317 19.1598 101.928 19.0898C106.508 18.7405 108.867 17.0782 110.186 15.4159ZM103.609 13.2054C103.348 13.9968 102.999 15.3054 101.945 15.8315C101.663 15.9436 101.364 16.0036 101.061 16.0084C99.4005 16.0084 100.096 14.1736 100.454 13.2054C100.527 12.7547 100.697 12.3253 100.953 11.9473C101.209 11.5693 101.545 11.2517 101.936 11.0171C102.189 10.918 102.454 10.8598 102.724 10.8446C104.313 10.8667 103.871 12.3522 103.609 13.2231V13.2054Z" fill="#1A1A18"/>
<path d="M93.6215 7.97119H93.0064H84.8506L79.6818 14.4524L82.0494 7.97119H75.5619L72.7562 16.7292L72.0571 18.922H72.7562H80.6466L86.0852 12.2596L83.6292 18.922H90.1123L93.0064 9.72631L93.6215 7.97119Z" fill="#1A1A18"/>
<path fill-rule="evenodd" clip-rule="evenodd" d="M265.969 6.05249C265.969 6.11438 266 6.17627 266.014 6.23816C266 6.17627 265.986 6.11438 265.969 6.05249Z" fill="#1A1A18"/>
<path fill-rule="evenodd" clip-rule="evenodd" d="M265.76 5.47314L265.823 5.62786L265.76 5.47314Z" fill="#1A1A18"/>
<path fill-rule="evenodd" clip-rule="evenodd" d="M265.632 5.2168L265.707 5.35827L265.632 5.2168Z" fill="#1A1A18"/>
<path fill-rule="evenodd" clip-rule="evenodd" d="M265.872 5.75171C265.872 5.80476 265.907 5.86223 265.926 5.9197C265.912 5.86223 265.894 5.80918 265.872 5.75171Z" fill="#1A1A18"/>
<path fill-rule="evenodd" clip-rule="evenodd" d="M266.102 6.72021C266.102 6.79979 266.102 6.88379 266.128 6.96336C266.119 6.88379 266.115 6.79979 266.102 6.72021Z" fill="#1A1A18"/>
<path fill-rule="evenodd" clip-rule="evenodd" d="M266.044 6.37524C266.044 6.44156 266.067 6.51231 266.08 6.58304C266.075 6.51231 266.075 6.44156 266.044 6.37524Z" fill="#1A1A18"/>
<path fill-rule="evenodd" clip-rule="evenodd" d="M266.141 7.08691C266.141 7.21512 266.141 7.34331 266.141 7.48036C266.154 7.34331 266.15 7.21512 266.141 7.08691Z" fill="#1A1A18"/>
<path fill-rule="evenodd" clip-rule="evenodd" d="M253.309 10.3938C253.246 10.5455 253.173 10.6932 253.091 10.8359C253.173 10.6932 253.246 10.5456 253.309 10.3938Z" fill="#1A1A18"/>
<path fill-rule="evenodd" clip-rule="evenodd" d="M253.029 10.9065L253.091 10.8093L253.029 10.9065Z" fill="#1A1A18"/>
<path fill-rule="evenodd" clip-rule="evenodd" d="M253.61 9.35059C253.565 9.62305 253.494 9.89086 253.401 10.1508C253.495 9.89086 253.565 9.62307 253.61 9.35059Z" fill="#1A1A18"/>
<path fill-rule="evenodd" clip-rule="evenodd" d="M253.029 16.6672L254.397 18.9131L253.029 16.6672Z" fill="#1A1A18"/>
<path fill-rule="evenodd" clip-rule="evenodd" d="M253.684 8.40003C253.685 8.61715 253.673 8.83412 253.649 9.04993C253.673 8.83412 253.685 8.61715 253.684 8.40003C253.732 7.32122 253.507 6.24787 253.029 5.27881C253.506 6.24793 253.732 7.32122 253.684 8.40003Z" fill="#1A1A18"/>
<path fill-rule="evenodd" clip-rule="evenodd" d="M252.839 11.1807C252.905 11.0967 252.968 11.0038 253.026 10.9065C252.968 11.0038 252.905 11.0967 252.839 11.1807Z" fill="white"/>
<path fill-rule="evenodd" clip-rule="evenodd" d="M265.425 4.88086L265.492 4.97811L265.425 4.88086Z" fill="white"/>
<path fill-rule="evenodd" clip-rule="evenodd" d="M264.711 4.14258L264.761 4.18238L264.711 4.14258Z" fill="white"/>
<path fill-rule="evenodd" clip-rule="evenodd" d="M263.995 3.71387L264.088 3.75806L263.995 3.71387Z" fill="white"/>
<path fill-rule="evenodd" clip-rule="evenodd" d="M264.906 4.30176L264.973 4.36808L264.906 4.30176Z" fill="white"/>
<path fill-rule="evenodd" clip-rule="evenodd" d="M265.088 4.47412L265.159 4.55369L265.088 4.47412Z" fill="white"/>
<path fill-rule="evenodd" clip-rule="evenodd" d="M265.26 4.64648L265.332 4.7349L265.26 4.64648Z" fill="white"/>
<path fill-rule="evenodd" clip-rule="evenodd" d="M264.455 3.96558L264.513 4.00092L264.455 3.96558Z" fill="white"/>
<path fill-rule="evenodd" clip-rule="evenodd" d="M264.305 3.87299L264.248 3.84204L264.305 3.87299Z" fill="white"/>
<path fill-rule="evenodd" clip-rule="evenodd" d="M265.633 5.20372L265.579 5.10645L265.633 5.20372Z" fill="white"/>
<path fill-rule="evenodd" clip-rule="evenodd" d="M263.77 3.61646L263.867 3.65625L263.77 3.61646Z" fill="white"/>
<path fill-rule="evenodd" clip-rule="evenodd" d="M263.087 3.39551L263.189 3.42203L263.087 3.39551Z" fill="white"/>
<path fill-rule="evenodd" clip-rule="evenodd" d="M262.862 3.34229L262.964 3.36438L262.862 3.34229Z" fill="white"/>
<path fill-rule="evenodd" clip-rule="evenodd" d="M263.318 3.45728L263.42 3.48823L263.318 3.45728Z" fill="white"/>
<path fill-rule="evenodd" clip-rule="evenodd" d="M263.543 3.53247L263.646 3.56785L263.543 3.53247Z" fill="white"/>
<path fill-rule="evenodd" clip-rule="evenodd" d="M266.075 6.57861C266.075 6.62283 266.075 6.67146 266.098 6.71566C266.075 6.67146 266.075 6.62724 266.075 6.57861Z" fill="white"/>
<path fill-rule="evenodd" clip-rule="evenodd" d="M266.128 6.96313C266.128 7.00293 266.128 7.04273 266.128 7.08694C266.137 7.04715 266.132 7.00735 266.128 6.96313Z" fill="white"/>
<path fill-rule="evenodd" clip-rule="evenodd" d="M265.708 5.3584L265.762 5.47778L265.708 5.3584Z" fill="white"/>
<path fill-rule="evenodd" clip-rule="evenodd" d="M265.929 5.91968L265.97 6.0523L265.929 5.91968Z" fill="white"/>
<path fill-rule="evenodd" clip-rule="evenodd" d="M266.013 6.23804C266.013 6.28225 266.013 6.33087 266.045 6.37509C266.035 6.32645 266.022 6.28225 266.013 6.23804Z" fill="white"/>
<path fill-rule="evenodd" clip-rule="evenodd" d="M265.823 5.62817L265.872 5.75198L265.823 5.62817Z" fill="white"/>
<path fill-rule="evenodd" clip-rule="evenodd" d="M265.632 3.16553V3.87287C266.358 4.59792 266.959 5.72528 266.959 7.47599C266.991 8.0766 266.888 8.67665 266.659 9.2326C266.429 9.7885 266.078 10.2864 265.632 10.69C266.258 11.0697 266.775 11.6038 267.134 12.2412C267.493 12.8784 267.681 13.5973 267.681 14.3285C267.698 14.9691 267.584 15.6062 267.345 16.2009C267.105 16.7955 266.747 17.3349 266.291 17.7857C266.087 17.9915 265.867 18.1808 265.632 18.3517V18.9087H271.005V3.16553H265.632Z" fill="#1A1A18"/>
<path fill-rule="evenodd" clip-rule="evenodd" d="M266.889 14.3286C266.896 13.8196 266.786 13.316 266.567 12.8561C266.348 12.3964 266.028 11.9927 265.628 11.6761C265.087 11.242 264.459 10.9284 263.787 10.7565C264.539 10.5809 265.197 10.1276 265.628 9.48766C266.004 8.889 266.189 8.19078 266.16 7.48495C266.16 7.3479 266.16 7.2197 266.16 7.0915C266.16 7.04728 266.16 7.00749 266.16 6.96769C266.16 6.92791 266.16 6.7997 266.132 6.72455C266.106 6.64939 266.132 6.63171 266.111 6.5875C266.088 6.54328 266.111 6.45043 266.075 6.3797C266.039 6.30896 266.075 6.28685 266.044 6.24265C266.013 6.19844 266.013 6.11886 266 6.05697L265.96 5.92435C265.96 5.86687 265.925 5.81382 265.907 5.75635L265.858 5.63255L265.797 5.47782L265.743 5.36287L265.667 5.22139L265.615 5.12415L265.53 4.99153L265.464 4.89425L265.371 4.77047L265.301 4.68205L265.199 4.5671L265.128 4.48753L265.013 4.377L264.946 4.31067L264.801 4.1913L264.752 4.15153L264.553 4.01005L264.495 3.97467L264.345 3.88186L264.287 3.8509H264.266L264.132 3.78015L264.04 3.73595L263.911 3.67848L263.814 3.63868L263.685 3.59005L263.584 3.5547L263.455 3.51048L263.354 3.47952L263.229 3.44417L263.128 3.41762L263.003 3.3867L262.902 3.36457L262.774 3.33805H262.677H262.549H262.456H262.318H262.234H262.088H262.017L261.61 3.31152H257.893H253.029V4.05425C253.915 4.93845 254.494 6.34434 254.499 8.54599C254.526 9.24429 254.41 9.94077 254.156 10.5923C253.904 11.244 253.52 11.837 253.029 12.3347V15.2482L255.087 18.6347L255.344 19.0768H261.593C263.079 19.0104 264.5 18.4468 265.628 17.4764C266.062 17.0801 266.4 16.5912 266.618 16.0463C266.837 15.5013 266.93 14.9142 266.889 14.3286ZM258.41 6.81297H259.473C259.64 6.79721 259.809 6.81487 259.97 6.86497C260.131 6.91507 260.28 6.99658 260.409 7.10477C260.537 7.21296 260.644 7.34569 260.721 7.4952C260.797 7.64471 260.844 7.80804 260.858 7.9757C260.858 8.62558 260.251 9.12956 259.446 9.15609H258.41V6.81297ZM259.88 15.1112H258.428V12.5116H260.079C260.248 12.5092 260.418 12.541 260.575 12.6051C260.733 12.6692 260.877 12.7643 260.996 12.8847C261.116 13.0051 261.211 13.1484 261.275 13.3061C261.338 13.4637 261.37 13.6326 261.367 13.8026C261.339 14.1716 261.168 14.5153 260.89 14.76C260.612 15.0046 260.249 15.1307 259.88 15.1112Z" fill="#1A1A18"/>
<path fill-rule="evenodd" clip-rule="evenodd" d="M252.215 15.3321L250.586 12.653C250.93 12.5714 251.261 12.442 251.568 12.2684C251.721 12.189 251.87 12.1004 252.011 12.0031L252.233 11.8307C252.303 11.7732 252.374 11.7114 252.445 11.645C252.543 11.5512 252.636 11.4523 252.724 11.3488L252.857 11.1808C252.922 11.0968 252.985 11.004 253.043 10.9067L253.104 10.8095C253.185 10.6668 253.258 10.5191 253.321 10.3673C253.357 10.2922 253.387 10.2126 253.414 10.133C253.507 9.87318 253.577 9.60531 253.622 9.33282C253.639 9.23555 253.653 9.13536 253.662 9.03219C253.685 8.81639 253.697 8.59944 253.697 8.38233C253.744 7.30352 253.519 6.23022 253.043 5.2611C252.963 5.11545 252.874 4.97515 252.776 4.8411C252.685 4.71483 252.585 4.59516 252.476 4.483C252.396 4.40343 252.317 4.32826 252.233 4.25753L252.078 4.13376C251.998 4.07628 251.918 4.01881 251.834 3.96576L251.577 3.81985C251.442 3.74752 251.303 3.68257 251.161 3.62533C250.996 3.56063 250.828 3.50455 250.657 3.45733C250.301 3.35943 249.939 3.28849 249.572 3.24513C249.387 3.22303 249.197 3.20535 249.006 3.19208L248.431 3.16113H248.139H247.555H240.076V18.9087H245.449V12.9448L248.422 18.9087H254.392L253.029 16.6629L252.215 15.3321ZM247.971 9.34167C247.912 9.46887 247.834 9.58657 247.741 9.69095L247.639 9.79258C247.568 9.85719 247.491 9.91493 247.408 9.96501C247.149 10.125 246.851 10.2091 246.545 10.2082H245.417V7.39642H246.577H246.736C246.836 7.40512 246.936 7.4229 247.033 7.4495L247.205 7.51137C247.368 7.57861 247.518 7.67444 247.648 7.79433C247.715 7.85736 247.776 7.92699 247.829 8.00212L247.904 8.11704C248.022 8.32134 248.083 8.55331 248.081 8.78905C248.084 8.97905 248.047 9.16751 247.971 9.34167Z" fill="#1A1A18"/>
<path fill-rule="evenodd" clip-rule="evenodd" d="M226.154 25.5576H227.757C227.658 26.0289 227.402 26.4527 227.031 26.7602C226.683 27.083 226.227 27.2644 225.752 27.2686C225.494 27.2797 225.238 27.2261 225.005 27.1126C224.773 26.9991 224.573 26.8292 224.425 26.6186C224.121 26.1934 223.967 25.6812 223.981 25.1597C223.982 24.9821 223.995 24.8048 224.021 24.6292C224.125 23.9585 224.41 23.3288 224.844 22.8078C225.047 22.538 225.309 22.318 225.609 22.1647C225.91 22.0114 226.242 21.929 226.58 21.9236C226.94 21.9166 227.291 22.0372 227.571 22.264C227.834 22.4896 228.023 22.7904 228.111 23.1261L229.522 22.4275C229.342 21.8837 228.984 21.4163 228.504 21.1012C228.004 20.7821 227.42 20.619 226.827 20.6326C226.291 20.6286 225.76 20.7317 225.264 20.9359C224.769 21.1402 224.319 21.4413 223.942 21.8219C223.164 22.5748 222.657 23.5632 222.499 24.6337C222.459 24.8717 222.438 25.1127 222.438 25.3542C222.405 26.1844 222.688 26.9961 223.229 27.6266C223.509 27.9421 223.855 28.1913 224.244 28.3558C224.632 28.5202 225.052 28.5958 225.473 28.5772C225.997 28.5874 226.517 28.4845 226.998 28.2755C227.478 28.0664 227.907 27.7561 228.257 27.3658C228.966 26.5762 229.423 25.5921 229.567 24.5408L229.597 24.3507H226.34L226.154 25.5576Z" fill="#1A1A18"/>
<path fill-rule="evenodd" clip-rule="evenodd" d="M237.112 23.9663L237.191 23.4578H235.793L235.009 28.3695H236.408L236.758 26.159C236.804 25.7759 236.919 25.4044 237.098 25.0626C237.201 24.893 237.347 24.7538 237.521 24.6597C237.695 24.5655 237.891 24.52 238.09 24.5276C238.291 24.5224 238.487 24.5899 238.643 24.7178L239.015 23.418C238.837 23.3417 238.646 23.3011 238.452 23.2987C238.192 23.2957 237.935 23.3547 237.702 23.4707C237.468 23.5868 237.266 23.7566 237.112 23.9663Z" fill="#1A1A18"/>
<path fill-rule="evenodd" clip-rule="evenodd" d="M247.046 23.2942C246.317 23.2814 245.611 23.5436 245.068 24.0281C244.736 24.3302 244.472 24.6974 244.289 25.1068C244.107 25.5161 244.013 25.9587 244.011 26.4066C243.999 26.6896 244.046 26.972 244.149 27.2359C244.251 27.4998 244.408 27.7398 244.607 27.9407C244.824 28.1395 245.076 28.2935 245.352 28.3937C245.628 28.4939 245.921 28.5383 246.214 28.5243C246.945 28.538 247.653 28.2777 248.201 27.7948C248.757 27.3112 249.119 26.6418 249.218 25.9115C249.245 25.7507 249.258 25.5881 249.258 25.4252C249.271 25.1397 249.224 24.8547 249.12 24.5883C249.017 24.3219 248.859 24.08 248.657 23.8778C248.44 23.6784 248.187 23.5241 247.91 23.4239C247.633 23.3238 247.34 23.2797 247.046 23.2942ZM247.422 26.7603C247.309 26.9228 247.157 27.056 246.982 27.1489C246.807 27.2419 246.612 27.292 246.413 27.2952C246.272 27.2981 246.134 27.2674 246.007 27.2059C245.881 27.1444 245.772 27.0538 245.687 26.9416C245.519 26.7146 245.433 26.4369 245.444 26.1546C245.448 25.7552 245.587 25.3688 245.838 25.0582C245.955 24.8956 246.108 24.7624 246.285 24.6695C246.463 24.5766 246.66 24.5266 246.86 24.5233C246.996 24.5172 247.133 24.5441 247.257 24.6018C247.381 24.6596 247.49 24.7464 247.573 24.8549C247.747 25.0863 247.838 25.37 247.829 25.6595C247.825 26.0597 247.681 26.4459 247.422 26.7515V26.7603Z" fill="#1A1A18"/>
<path fill-rule="evenodd" clip-rule="evenodd" d="M258.171 26.1194C258.035 26.9388 257.698 27.3485 257.158 27.3485C256.718 27.3485 256.498 27.095 256.498 26.588C256.502 26.4298 256.525 26.2726 256.565 26.1194L256.977 23.4668H255.578L255.135 26.3581C255.104 26.5362 255.087 26.7167 255.086 26.8975C255.086 27.991 255.721 28.5377 256.989 28.5377C258.465 28.5377 259.316 27.8112 259.543 26.3581L259.986 23.4668H258.587L258.171 26.1194Z" fill="#1A1A18"/>
<path fill-rule="evenodd" clip-rule="evenodd" d="M270.501 23.9354C270.335 23.726 270.123 23.5587 269.88 23.4473C269.639 23.3359 269.372 23.2834 269.106 23.2944C268.834 23.2913 268.565 23.3438 268.315 23.4487C268.064 23.5536 267.838 23.7087 267.651 23.9044L267.721 23.4624H266.323L265.132 31.0046H266.518L266.995 27.9099C267.117 28.1181 267.296 28.2871 267.511 28.3969C267.726 28.5066 267.968 28.5524 268.208 28.5288C268.593 28.5278 268.971 28.4369 269.314 28.2634C269.656 28.0899 269.954 27.8386 270.182 27.5297C270.678 26.9406 270.947 26.1947 270.943 25.4253C270.976 24.8921 270.818 24.3645 270.501 23.9354ZM269.129 26.7516C269.014 26.9127 268.864 27.0449 268.69 27.1377C268.515 27.2306 268.322 27.2816 268.124 27.2865C267.983 27.2893 267.844 27.2587 267.718 27.1972C267.592 27.1357 267.482 27.0451 267.398 26.9328C267.232 26.7017 267.146 26.4219 267.155 26.1371C267.156 25.7384 267.298 25.353 267.558 25.0495C267.671 24.8874 267.821 24.7544 267.996 24.6614C268.17 24.5684 268.364 24.5181 268.562 24.5145C268.7 24.5102 268.838 24.5401 268.963 24.6019C269.087 24.6636 269.194 24.7551 269.275 24.8682C269.448 25.0931 269.537 25.3715 269.527 25.6551C269.525 26.0557 269.385 26.4434 269.129 26.7516Z" fill="#1A1A18"/>
<path fill-rule="evenodd" clip-rule="evenodd" d="M222.569 3.14795H238.32L238.324 18.8955L222.569 18.8867V3.14795Z" fill="#D8D9D9"/>
<path fill-rule="evenodd" clip-rule="evenodd" d="M222.569 3.14795H238.32L238.324 18.8955L222.569 18.8867V3.14795Z" fill="#1A1A18"/>
<path fill-rule="evenodd" clip-rule="evenodd" d="M222.995 18.4532L222.99 3.58984H237.877L237.864 18.4577L222.995 18.4532Z" fill="#FFEC00"/>
<path fill-rule="evenodd" clip-rule="evenodd" d="M230.421 12.9138L235.16 17.6398L237.014 15.7875L232.27 11.0525L233.195 10.1374V8.29385L233.855 7.63513V9.16478L234.501 9.80138L236.815 7.48481L237.439 8.10375C237.415 7.035 236.979 6.01674 236.222 5.26106C236.041 5.05833 235.822 4.89473 235.576 4.7804C235.329 4.66607 235.063 4.60345 234.791 4.5964C234.52 4.58935 234.25 4.63804 233.999 4.73944C233.746 4.84084 233.518 4.99278 233.327 5.18589L231.115 7.41408L231.673 7.97113L230.442 9.19573L229.213 7.97113L229.77 7.41408L227.536 5.18149C227.345 4.98838 227.117 4.83642 226.865 4.73501C226.613 4.63361 226.343 4.58493 226.072 4.59198C225.8 4.59902 225.534 4.66165 225.288 4.77597C225.041 4.8903 224.822 5.05391 224.641 5.25664C223.887 6.01217 223.458 7.03232 223.446 8.09933L224.048 7.48038L226.363 9.79702L227.008 9.15595V7.63513L227.668 8.29385V10.133L228.593 11.0525L223.893 15.7432L225.747 17.5912L230.421 12.9138Z" fill="#1A1A18"/>
</g>
<defs>
<clipPath id="clip0">
<rect width="271" height="31" fill="white"/>
</clipPath>
</defs>
</svg>
