<svg width="271" height="31" viewBox="0 0 271 31" fill="none" xmlns="http://www.w3.org/2000/svg">
<g clip-path="url(#clip0)">
<path d="M15.2513 0.521715C14.1492 0.165634 12.9951 -0.0106231 11.835 -3.83981e-05H11.7509C8.64601 -3.83981e-05 5.66826 1.21181 3.47276 3.36892C1.27725 5.52604 0.0438232 8.45173 0.0438232 11.5023C0.0438232 14.553 1.27725 17.4787 3.47276 19.6357C5.66826 21.7928 8.64601 23.0047 11.7509 23.0047H11.835C12.9997 22.984 14.1534 22.7785 15.2513 22.396C17.6178 21.6616 19.6844 20.2054 21.1513 18.2386C22.6183 16.272 23.4092 13.8971 23.4092 11.4589C23.4092 9.02057 22.6183 6.64576 21.1513 4.67906C19.6844 2.71235 17.6178 1.25611 15.2513 0.521715ZM15.2513 21.9699C14.1481 22.3208 12.9946 22.4956 11.835 22.4874H11.7509C8.77453 22.4874 5.92002 21.3256 3.81539 19.2578C1.71076 17.19 0.528393 14.3854 0.528393 11.461C0.528393 8.53668 1.71076 5.73211 3.81539 3.66429C5.92002 1.59646 8.77453 0.434752 11.7509 0.434752H11.835C13 0.452157 14.1543 0.657817 15.2513 1.04347C17.4966 1.76515 19.4523 3.16561 20.839 5.04476C22.2256 6.92393 22.9722 9.18562 22.9722 11.5067C22.9722 13.8278 22.2256 16.0895 20.839 17.9686C19.4523 19.8477 17.4966 21.2482 15.2513 21.9699Z" fill="white"/>
<path d="M19.5466 6.03039C19.8227 6.72395 19.9725 7.45981 19.9892 8.20434C19.9892 11.387 16.7454 12.6783 15.4311 12.5957H15.2541C15.086 12.5957 14.993 12.5131 14.993 12.4262C14.993 12.1653 15.0816 11.9914 15.2541 11.9914C15.3012 11.9441 15.364 11.9147 15.4311 11.9087C15.7852 11.9087 15.8736 11.9914 16.2189 11.9914C16.564 11.9914 16.6614 11.7305 16.834 11.3826C16.9271 11.277 16.9978 11.1541 17.0419 11.0212C17.086 10.8883 17.1025 10.748 17.0906 10.6087C17.0906 9.9218 16.387 8.54348 16.0418 7.25215C16.0418 7.59564 16.0418 8.36522 15.6967 8.36522C15.6058 8.36777 15.516 8.34505 15.4378 8.29967C15.3594 8.25428 15.2958 8.18809 15.2541 8.10871C15.086 7.85218 14.909 7.50869 14.7364 7.23913C14.7785 7.58136 14.7785 7.92733 14.7364 8.26957C14.7364 8.60871 14.6435 8.86959 14.4709 8.86959C14.2983 8.86959 14.0283 8.60871 14.0283 8.00001C14.0283 7.3913 14.1124 6.96085 14.1124 5.9304C14.124 5.20982 13.9121 4.50284 13.5051 3.90334C13.098 3.30382 12.515 2.84011 11.8334 2.5738C11.4929 2.47145 11.1403 2.41301 10.7846 2.3999C7.71786 2.3999 7.36385 5.15213 7.19569 5.23474C7.02752 5.31736 6.84167 4.72602 5.8681 4.72602C4.7308 4.72602 3.50058 6.19126 3.0669 7.0565C2.31891 8.4318 1.9268 9.96677 1.92517 11.5261C1.93806 14.0734 2.97945 16.5117 4.82063 18.3051C6.66179 20.0986 9.1522 21.1008 11.7448 21.0916H11.829C13.0035 21.0892 14.1655 20.854 15.2452 20.4002C17.0806 19.7213 18.661 18.5076 19.7746 16.9215C20.8882 15.3355 21.4819 13.4529 21.4761 11.5261C21.4713 9.51794 20.8276 7.56145 19.6352 5.9304L19.5466 6.03039ZM11.8334 11.0261C11.0902 10.1235 10.6883 8.99576 10.6961 7.83478C10.6961 7.23913 10.8775 7.14781 11.0501 7.14781C11.4041 7.14781 11.5768 7.66522 11.8334 8.35219C11.8971 8.60582 12.0181 8.8421 12.1874 9.04349C12.453 9.64789 12.6299 9.99135 12.8866 10.5957C12.8277 11.0319 12.8577 11.4753 12.9751 11.9001C12.5781 11.6282 12.1956 11.3365 11.829 11.0261H11.8334ZM15.2497 16.9654C14.9794 16.9597 14.713 16.9018 14.4655 16.7949C14.2181 16.6881 13.9944 16.5343 13.8075 16.3426C13.6205 16.1508 13.4738 15.9247 13.3757 15.6772C13.2777 15.4297 13.2304 15.1656 13.2362 14.9001C13.2604 14.4339 13.4134 13.983 13.6787 13.5957C14.1212 14.1958 14.7319 14.6306 15.2497 14.1958L15.3382 14.1088C15.7807 13.674 15.4267 13.0783 15.2497 12.9044C15.5205 12.8986 15.7899 12.9454 16.0423 13.0419C16.2948 13.1384 16.5254 13.2829 16.721 13.467C16.9166 13.6511 17.0734 13.8713 17.1824 14.115C17.2913 14.3586 17.3504 14.621 17.3561 14.8871C17.3527 15.4361 17.1301 15.9619 16.7361 16.3514C16.3423 16.7409 15.8085 16.9629 15.2497 16.9697V16.9654Z" fill="white"/>
<path d="M52.2449 18.6091L54.5283 11.635L57.241 3.18701H54.5283H35.504L30.5034 18.6091H38.6592L42.08 7.75666H47.5983L44.0979 18.6091H52.2449Z" fill="white"/>
<path d="M73.0173 13.4393C73.1942 13.0957 73.982 10.687 72.7561 9.13919C72.057 8.187 70.7426 7.58698 68.3707 7.58698C66.7091 7.52708 65.0744 8.01197 63.7242 8.96526C63.3655 9.21268 63.0411 9.50501 62.7595 9.83482L63.4631 7.85655H56.7145L54.5461 14.5697L51.829 23.0133H58.9714L60.9008 17.2394C61.2504 17.7567 61.8612 18.5437 63.7065 18.7916C64.0828 18.8602 64.4657 18.8879 64.8482 18.8742C69.7559 18.8742 71.8622 16.0306 72.7384 14.2219C72.8585 13.9711 72.9519 13.7088 73.0173 13.4393ZM65.5651 13.4393C65.3881 13.9566 64.95 15.1784 63.7242 15.5045C63.5057 15.6131 63.2653 15.6724 63.0206 15.6784C61.2505 15.6784 61.693 14.0436 61.9717 13.2609C62.2372 12.6566 62.5825 11.4566 63.7419 11.1088C64.0073 11.1088 64.1844 11.0261 64.4499 11.0261C66.2864 11.0261 65.7776 12.6566 65.5828 13.4393H65.5651Z" fill="white"/>
<path d="M186.101 7.83936H184.875H178.914L177.684 11.6351H175.14L176.37 7.83936H169.095L166.205 16.6265L165.59 18.6091H166.205H172.865L174.087 14.7308H176.631L175.406 18.6091H182.592L184.875 11.6351L186.101 7.83936Z" fill="white"/>
<path d="M206.789 7.83931H198.549L192.939 12.1481L195.921 3.1001H188.642L184.875 14.8263L183.645 18.6091H184.875H190.836L192.588 13.3568L194.961 18.6091H203.457L200.124 12.5786L206.789 7.83931Z" fill="white"/>
<path d="M166.727 12.0568C166.816 11.7177 166.816 11.4612 166.904 11.1873C166.971 10.8252 166.942 10.4522 166.819 10.1047C166.695 9.7571 166.482 9.44699 166.2 9.20461C165.315 8.25677 163.306 7.56982 159.009 7.56982H157.345C155.726 7.65324 154.116 7.85379 152.526 8.16984L151.561 11.1873C153.301 10.6775 155.098 10.3854 156.912 10.3177H157.354C160.071 10.4003 160.332 11.0872 160.248 11.6221C160.253 11.6689 160.247 11.7162 160.231 11.7606C160.215 11.805 160.189 11.8453 160.155 11.8786C159.255 11.7686 158.35 11.7105 157.443 11.7047H157.354C151.92 11.7047 149.641 13.4438 148.676 14.9787C148.523 15.3088 148.405 15.6543 148.327 16.0091C148.248 16.2899 148.238 16.5853 148.299 16.8704C148.36 17.1556 148.489 17.4222 148.676 17.6482C149.376 18.4178 150.955 18.8526 152.885 18.8526C154.439 18.8818 155.976 18.5275 157.354 17.8222C157.796 17.4743 158.142 17.2135 158.403 17.0439L157.88 18.5917H164.629L166.209 13.5134L166.727 12.0568ZM159.457 14.2308C159.245 14.7802 158.878 15.2585 158.399 15.6091C158.066 15.7911 157.714 15.937 157.35 16.0439C157.093 16.1121 156.828 16.1399 156.562 16.1265C155.597 16.1265 155.075 15.8743 155.16 15.3569V15.096C155.288 14.8236 155.483 14.5867 155.728 14.4068C155.974 14.227 156.259 14.1098 156.562 14.0656C156.823 14.0656 157.005 13.9787 157.35 13.9787C157.842 13.8971 158.342 13.868 158.841 13.8917H159.545L159.457 14.2308Z" fill="white"/>
<path d="M149.017 12.4915C149.24 11.644 149.115 10.7443 148.668 9.98707C147.964 8.68273 146.039 7.66096 142.096 7.66096C141.332 7.66766 140.569 7.72579 139.813 7.8349C138.675 8.09142 137.803 8.60883 136.568 9.47406C136.745 8.26968 138.06 7.23488 139.197 6.80444C139.382 6.69618 139.592 6.63629 139.808 6.63051C140.905 6.35674 142.02 6.15483 143.145 6.02615C144.18 5.95183 145.206 5.77854 146.207 5.50875L146.296 5.3392L148.066 -0.00439453C147.8 -0.00439453 147.535 0.0869211 147.278 0.0869211C146.048 0.25649 144.822 0.430407 143.508 0.604322C142.25 0.79699 141.014 1.11456 139.821 1.55216C139.649 1.55216 139.56 1.63913 139.379 1.63913C137.914 2.29237 136.579 3.19631 135.435 4.30875C134.043 5.90146 132.918 7.7024 132.103 9.6436C131.396 11.0008 130.893 12.4525 130.612 13.9524C130.524 14.1219 129.121 18.8568 137.887 18.8568C138.53 18.8724 139.174 18.8448 139.813 18.7742C145.774 18.3394 147.875 15.5003 148.663 13.522C148.822 13.1936 148.941 12.8477 149.017 12.4915ZM141.282 13.0958C141.021 13.8697 140.667 15.1611 139.79 15.5915C139.522 15.7419 139.212 15.8029 138.906 15.7655C137.503 15.7655 137.852 14.3002 138.29 13.0089C138.382 12.5828 138.561 12.1797 138.819 11.8245C139.075 11.4692 139.403 11.1695 139.781 10.9436C140 10.835 140.24 10.7755 140.485 10.7697C142.007 10.7654 141.654 12.0567 141.282 13.0958Z" fill="white"/>
<path d="M125.267 7.58285C123.617 7.53147 121.995 8.00918 120.647 8.94376C120.306 9.21272 119.984 9.50319 119.682 9.81329L120.381 7.83504H113.602L110.186 18.5178L108.694 23.0006H115.97L117.827 17.2265C118.178 17.7439 118.881 18.5309 120.633 18.7787C121.037 18.8504 121.448 18.8782 121.859 18.8613C127.559 18.8613 129.572 14.9004 130.011 13.4351C130.431 11.8917 131.484 7.58285 125.267 7.58285ZM122.457 13.4395C122.284 14.0438 121.845 15.2439 120.621 15.5047C120.4 15.6111 120.161 15.6704 119.916 15.6786C118.146 15.6786 118.589 14.0438 118.863 13.2612C119.036 12.6568 119.562 11.522 120.633 11.2003C120.885 11.1003 121.151 11.0416 121.421 11.0264C123.164 11.0264 122.722 12.6612 122.457 13.4395Z" fill="white"/>
<path d="M110.186 15.1612C110.786 14.3885 111.236 13.5127 111.513 12.5786C111.736 11.9035 111.726 11.1753 111.487 10.5058C111.247 9.83639 110.789 9.26309 110.186 8.87421C109.044 8.09593 107.03 7.56984 103.791 7.56984C103.175 7.55172 102.557 7.57933 101.945 7.65245C95.9005 8.08724 93.794 10.5829 93.0063 12.1308C92.9435 12.4276 92.8547 12.7186 92.7408 13.0003C92.5682 13.6917 92.1257 15.3265 93.0063 16.6179C93.8913 17.8266 95.8119 18.857 100.087 18.857C100.702 18.8709 101.317 18.8432 101.927 18.7744C106.508 18.4309 108.867 16.7961 110.186 15.1612ZM103.609 12.9873C103.348 13.7656 102.999 15.0526 101.945 15.5699C101.663 15.6803 101.364 15.7392 101.061 15.7439C99.4004 15.7439 100.096 13.9395 100.454 12.9873C100.526 12.5441 100.697 12.1217 100.953 11.75C101.209 11.3782 101.545 11.0659 101.936 10.8351C102.189 10.7377 102.454 10.6805 102.724 10.6655C104.313 10.6873 103.87 12.1482 103.609 13.0047V12.9873Z" fill="white"/>
<path d="M93.6214 7.83936H93.0063H84.8505L79.6817 14.2134L82.0493 7.83936H75.5618L72.7561 16.4526L72.057 18.6091H72.7561H80.6464L86.0851 12.0569L83.6291 18.6091H90.1122L93.0063 9.56545L93.6214 7.83936Z" fill="white"/>
<path fill-rule="evenodd" clip-rule="evenodd" d="M265.969 5.95215C265.969 6.01302 266 6.07388 266.014 6.13475C266 6.07388 265.986 6.01302 265.969 5.95215Z" fill="#1A1A18"/>
<path fill-rule="evenodd" clip-rule="evenodd" d="M265.76 5.38232L265.823 5.53449L265.76 5.38232Z" fill="#1A1A18"/>
<path fill-rule="evenodd" clip-rule="evenodd" d="M265.632 5.13037L265.708 5.26951L265.632 5.13037Z" fill="#1A1A18"/>
<path fill-rule="evenodd" clip-rule="evenodd" d="M265.872 5.65674C265.872 5.70891 265.907 5.76544 265.926 5.82195C265.912 5.76544 265.894 5.71325 265.872 5.65674Z" fill="#1A1A18"/>
<path fill-rule="evenodd" clip-rule="evenodd" d="M266.102 6.60889C266.102 6.68714 266.102 6.76976 266.128 6.84801C266.119 6.76976 266.115 6.68714 266.102 6.60889Z" fill="#1A1A18"/>
<path fill-rule="evenodd" clip-rule="evenodd" d="M266.044 6.26953C266.044 6.33475 266.066 6.40433 266.08 6.47389C266.075 6.40433 266.075 6.33475 266.044 6.26953Z" fill="#1A1A18"/>
<path fill-rule="evenodd" clip-rule="evenodd" d="M266.141 6.96973C266.141 7.09581 266.141 7.22189 266.141 7.35667C266.155 7.22189 266.151 7.09581 266.141 6.96973Z" fill="#1A1A18"/>
<path fill-rule="evenodd" clip-rule="evenodd" d="M253.308 10.2217C253.246 10.3709 253.173 10.5162 253.09 10.6565C253.173 10.5162 253.246 10.371 253.308 10.2217Z" fill="#1A1A18"/>
<path fill-rule="evenodd" clip-rule="evenodd" d="M253.029 10.7259L253.091 10.6304L253.029 10.7259Z" fill="#1A1A18"/>
<path fill-rule="evenodd" clip-rule="evenodd" d="M253.61 9.1958C253.565 9.46376 253.494 9.72714 253.401 9.98276C253.495 9.72714 253.565 9.46378 253.61 9.1958Z" fill="#1A1A18"/>
<path fill-rule="evenodd" clip-rule="evenodd" d="M253.029 16.3916L254.397 18.6003L253.029 16.3916Z" fill="#1A1A18"/>
<path fill-rule="evenodd" clip-rule="evenodd" d="M253.683 8.26103C253.684 8.47456 253.673 8.68794 253.648 8.90018C253.673 8.68794 253.684 8.47456 253.683 8.26103C253.731 7.20005 253.506 6.14445 253.029 5.19141C253.505 6.1445 253.731 7.20006 253.683 8.26103Z" fill="#1A1A18"/>
<path fill-rule="evenodd" clip-rule="evenodd" d="M252.839 10.9957C252.905 10.9131 252.968 10.8217 253.026 10.7261C252.968 10.8217 252.905 10.9131 252.839 10.9957Z" fill="white"/>
<path fill-rule="evenodd" clip-rule="evenodd" d="M265.425 4.80029L265.491 4.89594L265.425 4.80029Z" fill="white"/>
<path fill-rule="evenodd" clip-rule="evenodd" d="M264.711 4.07373L264.762 4.11381L264.711 4.07373Z" fill="white"/>
<path fill-rule="evenodd" clip-rule="evenodd" d="M263.995 3.65234L264.089 3.69581L263.995 3.65234Z" fill="white"/>
<path fill-rule="evenodd" clip-rule="evenodd" d="M264.906 4.23047L264.973 4.29614L264.906 4.23047Z" fill="white"/>
<path fill-rule="evenodd" clip-rule="evenodd" d="M265.088 4.3999L265.159 4.47816L265.088 4.3999Z" fill="white"/>
<path fill-rule="evenodd" clip-rule="evenodd" d="M265.26 4.56934L265.332 4.65629L265.26 4.56934Z" fill="white"/>
<path fill-rule="evenodd" clip-rule="evenodd" d="M264.455 3.8999L264.513 3.93548L264.455 3.8999Z" fill="white"/>
<path fill-rule="evenodd" clip-rule="evenodd" d="M264.305 3.80948L264.248 3.77832L264.305 3.80948Z" fill="white"/>
<path fill-rule="evenodd" clip-rule="evenodd" d="M265.633 5.11764L265.579 5.02197L265.633 5.11764Z" fill="white"/>
<path fill-rule="evenodd" clip-rule="evenodd" d="M263.769 3.55664L263.866 3.59643L263.769 3.55664Z" fill="white"/>
<path fill-rule="evenodd" clip-rule="evenodd" d="M263.087 3.33936L263.189 3.36588L263.087 3.33936Z" fill="white"/>
<path fill-rule="evenodd" clip-rule="evenodd" d="M262.862 3.28662L262.964 3.30872L262.862 3.28662Z" fill="white"/>
<path fill-rule="evenodd" clip-rule="evenodd" d="M263.318 3.3999L263.42 3.43085L263.318 3.3999Z" fill="white"/>
<path fill-rule="evenodd" clip-rule="evenodd" d="M263.543 3.47412L263.645 3.5095L263.543 3.47412Z" fill="white"/>
<path fill-rule="evenodd" clip-rule="evenodd" d="M266.075 6.46973C266.075 6.51321 266.075 6.56104 266.098 6.60451C266.075 6.56104 266.075 6.51755 266.075 6.46973Z" fill="white"/>
<path fill-rule="evenodd" clip-rule="evenodd" d="M266.128 6.84814C266.128 6.88728 266.128 6.92642 266.128 6.9699C266.137 6.93078 266.132 6.89163 266.128 6.84814Z" fill="white"/>
<path fill-rule="evenodd" clip-rule="evenodd" d="M265.707 5.26953L265.761 5.38694L265.707 5.26953Z" fill="white"/>
<path fill-rule="evenodd" clip-rule="evenodd" d="M265.929 5.82178L265.97 5.95221L265.929 5.82178Z" fill="white"/>
<path fill-rule="evenodd" clip-rule="evenodd" d="M266.013 6.13477C266.013 6.17825 266.013 6.22607 266.045 6.26955C266.035 6.22172 266.022 6.17825 266.013 6.13477Z" fill="white"/>
<path fill-rule="evenodd" clip-rule="evenodd" d="M265.823 5.53516L265.872 5.65692L265.823 5.53516Z" fill="white"/>
<path fill-rule="evenodd" clip-rule="evenodd" d="M265.632 3.11328V3.80893C266.358 4.52199 266.96 5.63072 266.96 7.35248C266.991 7.94316 266.888 8.53329 266.659 9.08005C266.429 9.62676 266.078 10.1165 265.632 10.5134C266.258 10.8868 266.775 11.4121 267.134 12.0389C267.493 12.6656 267.682 13.3726 267.682 14.0918C267.698 14.7217 267.584 15.3483 267.345 15.9331C267.105 16.5179 266.747 17.0484 266.291 17.4918C266.087 17.6941 265.867 17.8803 265.632 18.0484V18.5962H271.005V3.11328H265.632Z" fill="white"/>
<path fill-rule="evenodd" clip-rule="evenodd" d="M266.889 14.0918C266.896 13.5912 266.785 13.0959 266.566 12.6436C266.348 12.1915 266.027 11.7945 265.628 11.4831C265.087 11.0562 264.459 10.7478 263.787 10.5787C264.539 10.406 265.197 9.96026 265.628 9.33087C266.004 8.74211 266.189 8.05543 266.159 7.36126C266.159 7.22648 266.159 7.1004 266.159 6.97432C266.159 6.93084 266.159 6.8917 266.159 6.85256C266.159 6.81343 266.159 6.68735 266.132 6.61343C266.105 6.53952 266.132 6.52213 266.11 6.47865C266.088 6.43517 266.11 6.34385 266.075 6.27429C266.039 6.20472 266.075 6.18298 266.044 6.1395C266.012 6.09602 266.012 6.01776 266 5.95689L265.96 5.82647C265.96 5.76994 265.924 5.71777 265.907 5.66124L265.858 5.53949L265.796 5.38732L265.742 5.27427L265.667 5.13513L265.614 5.0395L265.53 4.90907L265.464 4.81339L265.371 4.69166L265.3 4.60471L265.198 4.49166L265.128 4.4134L265.013 4.3047L264.946 4.23947L264.8 4.12207L264.751 4.08295L264.553 3.94381L264.495 3.90902L264.344 3.81774L264.287 3.7873H264.265L264.132 3.71771L264.039 3.67425L263.911 3.61772L263.813 3.57858L263.685 3.53076L263.583 3.49599L263.455 3.4525L263.353 3.42206L263.229 3.38729L263.127 3.36118L263.003 3.33077L262.901 3.30901L262.773 3.28292H262.676H262.548H262.455H262.317H262.233H262.087H262.017L261.61 3.25684H257.892H253.029V3.98729C253.914 4.85687 254.493 6.23951 254.498 8.40476C254.526 9.09152 254.409 9.77648 254.156 10.4173C253.904 11.0582 253.52 11.6414 253.029 12.1309V14.9961L255.086 18.3267L255.344 18.7614H261.592C263.078 18.6962 264.5 18.1419 265.628 17.1875C266.061 16.7978 266.4 16.317 266.618 15.7811C266.836 15.2451 266.929 14.6677 266.889 14.0918ZM258.41 6.7004H259.472C259.64 6.6849 259.809 6.70227 259.969 6.75153C260.131 6.80081 260.279 6.88097 260.409 6.98737C260.537 7.09377 260.643 7.22431 260.721 7.37134C260.797 7.51839 260.844 7.67902 260.858 7.8439C260.858 8.48304 260.251 8.97869 259.446 9.00478H258.41V6.7004ZM259.879 14.8614H258.427V12.3048H260.079C260.248 12.3025 260.417 12.3337 260.575 12.3968C260.732 12.4598 260.876 12.5533 260.996 12.6717C261.116 12.7902 261.211 12.9311 261.274 13.0862C261.338 13.2412 261.369 13.4073 261.366 13.5745C261.339 13.9374 261.168 14.2754 260.89 14.516C260.612 14.7566 260.249 14.8806 259.879 14.8614Z" fill="white"/>
<path fill-rule="evenodd" clip-rule="evenodd" d="M252.215 15.0786L250.586 12.4438C250.931 12.3636 251.261 12.2363 251.568 12.0656C251.721 11.9875 251.87 11.9004 252.012 11.8046L252.233 11.6352C252.303 11.5786 252.375 11.5178 252.445 11.4525C252.543 11.3603 252.636 11.263 252.724 11.1612L252.857 10.996C252.922 10.9134 252.985 10.8221 253.043 10.7264L253.104 10.6308C253.186 10.4904 253.258 10.3452 253.322 10.196C253.357 10.122 253.387 10.0438 253.415 9.96549C253.507 9.70996 253.577 9.44652 253.622 9.17854C253.64 9.08288 253.653 8.98434 253.662 8.88288C253.686 8.67064 253.697 8.45729 253.697 8.24376C253.744 7.18279 253.519 6.12723 253.043 5.17414C252.963 5.03089 252.874 4.89291 252.777 4.76108C252.685 4.6369 252.585 4.51921 252.476 4.4089C252.396 4.33064 252.317 4.25672 252.233 4.18715L252.078 4.06543C251.998 4.00891 251.919 3.95238 251.834 3.90021L251.577 3.75672C251.442 3.68558 251.303 3.62171 251.161 3.56541C250.996 3.50178 250.828 3.44662 250.658 3.40019C250.301 3.3039 249.939 3.23414 249.573 3.1915C249.387 3.16976 249.197 3.15237 249.006 3.13933L248.431 3.10889H248.139H247.555H240.076V18.5961H245.449V12.7308L248.422 18.5961H254.392L253.029 16.3874L252.215 15.0786ZM247.971 9.18724C247.912 9.31234 247.834 9.4281 247.741 9.53075L247.639 9.63069C247.568 9.69424 247.491 9.75102 247.408 9.80028C247.149 9.95758 246.851 10.0404 246.546 10.0394H245.418V7.27415H246.577H246.736C246.836 7.28271 246.936 7.30019 247.033 7.32635L247.205 7.38721C247.368 7.45334 247.518 7.54758 247.648 7.66548C247.715 7.72748 247.776 7.79595 247.829 7.86984L247.904 7.98287C248.022 8.18379 248.084 8.41192 248.082 8.64376C248.085 8.83062 248.047 9.01596 247.971 9.18724Z" fill="white"/>
<path fill-rule="evenodd" clip-rule="evenodd" d="M226.154 25.1348H227.757C227.658 25.5983 227.401 26.0151 227.031 26.3175C226.682 26.6351 226.226 26.8134 225.752 26.8175C225.494 26.8285 225.237 26.7758 225.004 26.6641C224.773 26.5525 224.573 26.3855 224.424 26.1783C224.121 25.7602 223.966 25.2564 223.981 24.7435C223.982 24.5689 223.995 24.3945 224.021 24.2218C224.125 23.5622 224.41 22.9429 224.844 22.4305C225.047 22.1651 225.309 21.9488 225.609 21.7981C225.909 21.6473 226.242 21.5663 226.58 21.5609C226.94 21.5541 227.291 21.6727 227.571 21.8957C227.834 22.1176 228.023 22.4134 228.111 22.7435L229.521 22.0565C229.341 21.5217 228.983 21.0621 228.504 20.7521C228.004 20.4383 227.42 20.2779 226.827 20.2913C226.291 20.2873 225.76 20.3888 225.264 20.5896C224.769 20.7904 224.319 21.0866 223.942 21.4609C223.164 22.2013 222.656 23.1734 222.499 24.2262C222.459 24.4603 222.437 24.6973 222.437 24.9348C222.405 25.7513 222.688 26.5495 223.229 27.1697C223.509 27.48 223.855 27.725 224.243 27.8868C224.632 28.0485 225.051 28.1229 225.473 28.1045C225.997 28.1146 226.517 28.0134 226.997 27.8078C227.478 27.6022 227.907 27.297 228.256 26.9132C228.966 26.1366 229.423 25.1688 229.566 24.1348L229.597 23.9479H226.34L226.154 25.1348Z" fill="white"/>
<path fill-rule="evenodd" clip-rule="evenodd" d="M237.111 23.5697L237.191 23.0696H235.793L235.009 27.9002H236.408L236.757 25.7262C236.803 25.3494 236.919 24.9841 237.098 24.6479C237.2 24.4811 237.346 24.3442 237.52 24.2517C237.694 24.1591 237.891 24.1143 238.09 24.1218C238.29 24.1167 238.487 24.1831 238.642 24.3089L239.014 23.0306C238.836 22.9555 238.645 22.9156 238.452 22.9132C238.191 22.9102 237.934 22.9683 237.701 23.0824C237.467 23.1965 237.266 23.3636 237.111 23.5697Z" fill="white"/>
<path fill-rule="evenodd" clip-rule="evenodd" d="M247.047 22.9089C246.318 22.8963 245.611 23.1541 245.068 23.6307C244.737 23.9278 244.473 24.2889 244.29 24.6916C244.108 25.0941 244.013 25.5293 244.011 25.9699C243.999 26.2482 244.046 26.5259 244.149 26.7854C244.251 27.045 244.408 27.281 244.608 27.4786C244.824 27.6741 245.076 27.8256 245.352 27.9241C245.628 28.0226 245.921 28.0664 246.214 28.0525C246.945 28.066 247.653 27.81 248.201 27.3351C248.758 26.8595 249.12 26.2012 249.218 25.4829C249.245 25.3248 249.259 25.1649 249.259 25.0046C249.271 24.7239 249.224 24.4436 249.121 24.1816C249.017 23.9196 248.859 23.6817 248.657 23.4828C248.441 23.2868 248.187 23.135 247.91 23.0365C247.634 22.938 247.34 22.8946 247.047 22.9089ZM247.422 26.3177C247.309 26.4775 247.157 26.6085 246.982 26.6998C246.807 26.7913 246.612 26.8407 246.414 26.8438C246.273 26.8466 246.134 26.8165 246.008 26.756C245.881 26.6955 245.772 26.6064 245.688 26.496C245.519 26.2727 245.433 25.9997 245.444 25.7221C245.448 25.3292 245.587 24.9492 245.838 24.6437C245.955 24.4838 246.108 24.3528 246.285 24.2615C246.463 24.1701 246.66 24.1209 246.861 24.1176C246.997 24.1116 247.134 24.1381 247.257 24.1949C247.381 24.2517 247.49 24.3371 247.573 24.4438C247.747 24.6714 247.838 24.9503 247.829 25.2351C247.825 25.6287 247.682 26.0085 247.422 26.309V26.3177Z" fill="white"/>
<path fill-rule="evenodd" clip-rule="evenodd" d="M258.171 25.6874C258.035 26.4932 257.698 26.8961 257.158 26.8961C256.719 26.8961 256.498 26.6468 256.498 26.1482C256.502 25.9926 256.525 25.838 256.565 25.6874L256.977 23.0786H255.578L255.136 25.9221C255.104 26.0973 255.088 26.2748 255.087 26.4526C255.087 27.528 255.722 28.0657 256.99 28.0657C258.465 28.0657 259.316 27.3512 259.543 25.9221L259.986 23.0786H258.587L258.171 25.6874Z" fill="white"/>
<path fill-rule="evenodd" clip-rule="evenodd" d="M270.5 23.5395C270.335 23.3336 270.123 23.169 269.88 23.0595C269.638 22.9499 269.372 22.8983 269.106 22.9091C268.834 22.9061 268.565 22.9577 268.315 23.0609C268.064 23.1641 267.838 23.3166 267.65 23.509L267.721 23.0743H266.323L265.132 30.4918H266.517L266.995 27.4483C267.117 27.6531 267.296 27.8193 267.51 27.9273C267.726 28.0351 267.967 28.0802 268.208 28.057C268.592 28.056 268.971 27.9666 269.313 27.796C269.656 27.6253 269.953 27.3782 270.181 27.0744C270.677 26.495 270.946 25.7615 270.942 25.0047C270.976 24.4804 270.818 23.9615 270.5 23.5395ZM269.129 26.3091C269.014 26.4676 268.863 26.5976 268.689 26.6889C268.515 26.7803 268.321 26.8304 268.124 26.8352C267.983 26.838 267.844 26.8079 267.718 26.7474C267.592 26.6869 267.482 26.5978 267.398 26.4874C267.231 26.2601 267.145 25.9849 267.154 25.7048C267.155 25.3127 267.298 24.9337 267.557 24.6352C267.671 24.4758 267.82 24.345 267.996 24.2535C268.17 24.1621 268.363 24.1126 268.562 24.1091C268.7 24.1048 268.838 24.1342 268.962 24.195C269.086 24.2557 269.194 24.3456 269.274 24.4569C269.447 24.6781 269.536 24.9519 269.527 25.2308C269.525 25.6248 269.385 26.0061 269.129 26.3091Z" fill="white"/>
<path d="M223.069 3.5957H237.82L237.823 18.0826L223.069 18.0745V3.5957Z" stroke="white"/>
<path fill-rule="evenodd" clip-rule="evenodd" d="M230.421 12.7L235.16 17.3479L237.014 15.5262L232.27 10.8695L233.195 9.96958V8.15647L233.855 7.50864V9.013L234.501 9.63908L236.815 7.3608L237.439 7.96951C237.415 6.91843 236.979 5.917 236.222 5.17382C236.041 4.97444 235.822 4.81354 235.576 4.7011C235.329 4.58866 235.063 4.52707 234.791 4.52015C234.52 4.51321 234.25 4.5611 233.999 4.66082C233.746 4.76054 233.518 4.90997 233.327 5.09989L231.115 7.29124L231.673 7.83909L230.442 9.04344L229.213 7.83909L229.77 7.29124L227.536 5.09556C227.345 4.90564 227.117 4.7562 226.865 4.65647C226.613 4.55674 226.343 4.50887 226.072 4.51579C225.8 4.52272 225.534 4.58431 225.288 4.69675C225.041 4.80919 224.822 4.97009 224.641 5.16947C223.887 5.91251 223.458 6.91579 223.446 7.96516L224.048 7.35645L226.363 9.63479L227.008 9.00432V7.50864L227.668 8.15647V9.9652L228.593 10.8695L223.893 15.4827L225.747 17.3001L230.421 12.7Z" fill="white"/>
</g>
<defs>
<clipPath id="clip0">
<rect width="271" height="30.4875" fill="white"/>
</clipPath>
</defs>
</svg>
