<svg width="18" height="18" viewBox="0 0 18 18" fill="none" xmlns="http://www.w3.org/2000/svg">
<path fill-rule="evenodd" clip-rule="evenodd" d="M9 0C4.02528 0 0 4.02564 0 9C0 13.9747 4.02563 18 9 18C13.9747 18 18 13.9744 18 9C18 4.02528 13.9743 0 9 0ZM9 16.5938C4.8026 16.5938 1.40625 13.1971 1.40625 9C1.40625 4.80259 4.80287 1.40625 9 1.40625C13.1974 1.40625 16.5938 4.80287 16.5938 9C16.5938 13.1974 13.1971 16.5938 9 16.5938ZM9 7.53502C8.61166 7.53502 8.29688 7.84981 8.29688 8.23815V12.766C8.29688 13.1544 8.61166 13.4692 9 13.4692C9.38834 13.4692 9.70312 13.1543 9.70312 12.766V8.23815C9.70312 7.84981 9.38834 7.53502 9 7.53502ZM9.94922 5.72487C9.94922 6.24911 9.52425 6.67409 9 6.67409C8.47575 6.67409 8.05078 6.24911 8.05078 5.72487C8.05078 5.20063 8.47575 4.77565 9 4.77565C9.52425 4.77565 9.94922 5.20063 9.94922 5.72487Z" fill="#BBBBBB"/>
</svg>
