<svg width="110" height="110" viewBox="0 0 110 110" fill="none" xmlns="http://www.w3.org/2000/svg">
<path d="M94 35V51H14.5V35H94Z" fill="#52ADD2"/>
<path d="M93.8533 51.5H52.4402H2.66656C2.05776 51.5 1.862 51.3369 1.78789 51.2535C1.68382 51.1364 1.50012 50.8095 1.50012 50V36C1.50012 35.2347 1.69172 34.9355 1.81281 34.8155C1.93642 34.693 2.24625 34.5 3.02765 34.5H93.8533C94.6347 34.5 94.9446 34.693 95.0682 34.8155C95.1893 34.9355 95.3809 35.2347 95.3809 36V50C95.3809 50.6174 95.1748 50.9463 94.9657 51.1342C94.7317 51.3444 94.3534 51.5 93.8533 51.5Z" stroke="#333849" stroke-width="3"/>
<path d="M13.5 51.5V34.5" stroke="#333849" stroke-width="3"/>
<path d="M94 51V34" stroke="#333849" stroke-width="3"/>
<path d="M15 75V59H94.5V75H15Z" fill="#52ADD2"/>
<path d="M16.1467 58.5H57.5598H107.333C107.942 58.5 108.138 58.6631 108.212 58.7465C108.316 58.8636 108.5 59.1905 108.5 60V74C108.5 74.7653 108.308 75.0645 108.187 75.1845C108.064 75.307 107.754 75.5 106.972 75.5H16.1467C15.3653 75.5 15.0554 75.307 14.9318 75.1845C14.8107 75.0645 14.6191 74.7653 14.6191 74V60C14.6191 59.3826 14.8252 59.0537 15.0343 58.8658C15.2683 58.6556 15.6466 58.5 16.1467 58.5Z" stroke="#333849" stroke-width="3"/>
<path d="M95 59V75" stroke="#333849" stroke-width="3"/>
<path d="M15 59V75" stroke="#333849" stroke-width="3"/>
</svg>
