<svg width="109" height="109" viewBox="0 0 109 109" fill="none" xmlns="http://www.w3.org/2000/svg">
<circle cx="29" cy="80" r="21" fill="#52ADD2"/>
<circle cx="29" cy="80" r="27.5" stroke="#333849" stroke-width="3"/>
<path d="M24.5607 97.6147C23.9749 98.1284 23.0251 98.1284 22.4393 97.6147C21.8536 97.1009 21.8536 96.2679 22.4393 95.7541L29 90L35.5607 95.7541C36.1464 96.2679 36.1464 97.1009 35.5607 97.6147C34.9749 98.1284 34.0251 98.1284 33.4393 97.6147L29 93.7211L24.5607 97.6147Z" fill="#333849"/>
<path d="M27.3848 95.238C27.3848 94.5543 28.108 93 29.0002 93C29.8923 93 30.6155 94.5543 30.6155 95.238V106.253C30.6155 106.936 29.8923 107 29.0002 107C28.108 107 27.3848 106.936 27.3848 106.253V95.238Z" fill="#333849"/>
<path d="M24.5607 62.3853C23.9749 61.8716 23.0251 61.8716 22.4393 62.3853C21.8536 62.8991 21.8536 63.7321 22.4393 64.2459L29 70L35.5607 64.2459C36.1464 63.7321 36.1464 62.8991 35.5607 62.3853C34.9749 61.8716 34.0251 61.8716 33.4393 62.3853L29 66.2789L24.5607 62.3853Z" fill="#333849"/>
<path d="M27.3848 64.762C27.3848 65.4457 28.108 67 29.0002 67C29.8923 67 30.6155 65.4457 30.6155 64.762V53.7474C30.6155 53.0637 29.8923 53 29.0002 53C28.108 53 27.3848 53.0637 27.3848 53.7474V64.762Z" fill="#333849"/>
<path d="M11.3853 85.4393C10.8716 86.0251 10.8716 86.9749 11.3853 87.5607C11.8991 88.1464 12.7321 88.1464 13.2459 87.5607L19 81L13.2459 74.4393C12.7321 73.8536 11.8991 73.8536 11.3853 74.4393C10.8716 75.0251 10.8716 75.9749 11.3853 76.5607L15.2789 81L11.3853 85.4393Z" fill="#333849"/>
<path d="M13.762 82.6152C14.4457 82.6152 16 81.892 16 80.9998C16 80.1077 14.4457 79.3845 13.762 79.3845H2.74741C2.0637 79.3845 2 80.1077 2 80.9998C2 81.892 2.0637 82.6152 2.74741 82.6152H13.762Z" fill="#333849"/>
<path d="M46.6147 85.4393C47.1284 86.0251 47.1284 86.9749 46.6147 87.5607C46.1009 88.1464 45.2679 88.1464 44.7541 87.5607L39 81L44.7541 74.4393C45.2679 73.8536 46.1009 73.8536 46.6147 74.4393C47.1284 75.0251 47.1284 75.9749 46.6147 76.5607L42.7211 81L46.6147 85.4393Z" fill="#333849"/>
<path d="M44.238 82.6152C43.5543 82.6152 42 81.892 42 80.9998C42 80.1077 43.5543 79.3845 44.238 79.3845H55.2526C55.9363 79.3845 56 80.1077 56 80.9998C56 81.892 55.9363 82.6152 55.2526 82.6152H44.238Z" fill="#333849"/>
<circle cx="80" cy="29" r="21" fill="#52ADD2"/>
<circle cx="80" cy="29" r="27.5" stroke="#333849" stroke-width="3"/>
<path d="M75.5607 46.6147C74.9749 47.1284 74.0251 47.1284 73.4393 46.6147C72.8536 46.1009 72.8536 45.2679 73.4393 44.7541L80 39L86.5607 44.7541C87.1464 45.2679 87.1464 46.1009 86.5607 46.6147C85.9749 47.1284 85.0251 47.1284 84.4393 46.6147L80 42.7211L75.5607 46.6147Z" fill="#333849"/>
<path d="M78.3848 44.238C78.3848 43.5543 79.108 42 80.0002 42C80.8923 42 81.6155 43.5543 81.6155 44.238V55.2526C81.6155 55.9363 80.8923 56 80.0002 56C79.108 56 78.3848 55.9363 78.3848 55.2526V44.238Z" fill="#333849"/>
<path d="M75.5607 11.3853C74.9749 10.8716 74.0251 10.8716 73.4393 11.3853C72.8536 11.8991 72.8536 12.7321 73.4393 13.2459L80 19L86.5607 13.2459C87.1464 12.7321 87.1464 11.8991 86.5607 11.3853C85.9749 10.8716 85.0251 10.8716 84.4393 11.3853L80 15.2789L75.5607 11.3853Z" fill="#333849"/>
<path d="M78.3848 13.762C78.3848 14.4457 79.108 16 80.0002 16C80.8923 16 81.6155 14.4457 81.6155 13.762V2.74741C81.6155 2.0637 80.8923 2 80.0002 2C79.108 2 78.3848 2.0637 78.3848 2.74741V13.762Z" fill="#333849"/>
<path d="M62.3853 34.4393C61.8716 35.0251 61.8716 35.9749 62.3853 36.5607C62.8991 37.1464 63.7321 37.1464 64.2459 36.5607L70 30L64.2459 23.4393C63.7321 22.8536 62.8991 22.8536 62.3853 23.4393C61.8716 24.0251 61.8716 24.9749 62.3853 25.5607L66.2789 30L62.3853 34.4393Z" fill="#333849"/>
<path d="M64.762 31.6152C65.4457 31.6152 67 30.892 67 29.9998C67 29.1077 65.4457 28.3845 64.762 28.3845H53.7474C53.0637 28.3845 53 29.1077 53 29.9998C53 30.892 53.0637 31.6152 53.7474 31.6152H64.762Z" fill="#333849"/>
<path d="M97.6147 34.4393C98.1284 35.0251 98.1284 35.9749 97.6147 36.5607C97.1009 37.1464 96.2679 37.1464 95.7541 36.5607L90 30L95.7541 23.4393C96.2679 22.8536 97.1009 22.8536 97.6147 23.4393C98.1284 24.0251 98.1284 24.9749 97.6147 25.5607L93.7211 30L97.6147 34.4393Z" fill="#333849"/>
<path d="M95.238 31.6152C94.5543 31.6152 93 30.892 93 29.9998C93 29.1077 94.5543 28.3845 95.238 28.3845H106.253C106.936 28.3845 107 29.1077 107 29.9998C107 30.892 106.936 31.6152 106.253 31.6152H95.238Z" fill="#333849"/>
</svg>
