<svg width="110" height="110" viewBox="0 0 110 110" fill="none" xmlns="http://www.w3.org/2000/svg">
<circle cx="55" cy="55" r="26" fill="#52ADD2"/>
<circle cx="55" cy="55" r="32.5" stroke="#333849" stroke-width="3"/>
<path fill-rule="evenodd" clip-rule="evenodd" d="M55 34C56.4019 34 57.5383 35.0447 57.5383 36.3333V39.2773C60.9854 39.7477 64.0311 41.6907 65.7009 44.5686C66.3606 45.7057 65.8926 47.1191 64.6557 47.7255C63.4187 48.3319 61.8811 47.9018 61.2214 46.7647C60.1746 44.9604 58.1311 43.8333 55.9066 43.8333H53.5384C51.0745 43.8333 49.0772 45.6694 49.0772 47.9342C49.0772 50.1991 51.0745 52.0351 53.5384 52.0351H55.7745C61.4216 52.0351 65.9995 56.2432 65.9995 61.4342C65.9995 66.0723 62.3449 69.9258 57.5383 70.694V73.6667C57.5383 74.9553 56.4019 76 55 76C53.5981 76 52.4617 74.9553 52.4617 73.6667V70.7227C49.0146 70.2523 45.9689 68.3093 44.2991 65.4314C43.6394 64.2943 44.1074 62.8809 45.3443 62.2745C46.5813 61.6681 48.1189 62.0982 48.7786 63.2353C49.8254 65.0396 51.8689 66.1667 54.0934 66.1667H55.7745C58.6179 66.1667 60.9228 64.0479 60.9228 61.4342C60.9228 58.8205 58.6179 56.7018 55.7745 56.7018H53.5384C48.2708 56.7018 44.0005 52.7764 44.0005 47.9342C44.0005 43.4267 47.7009 39.7136 52.4617 39.2219V36.3333C52.4617 35.0447 53.5981 34 55 34Z" fill="#333849"/>
</svg>
