<svg width="110" height="110" viewBox="0 0 110 110" fill="none" xmlns="http://www.w3.org/2000/svg">
<path d="M50.4587 37H3.02752C1.00917 37 0 38 0 40V70C0 72 1.00917 73 3.02752 73H16.1468C18.1651 73 19.1743 72 19.1743 70V57H90.8257V70C90.8257 72 91.8349 73 93.8532 73H106.972C108.991 73 110 72 110 70V40C110 38 108.991 37 106.972 37H50.4587Z" fill="#52ADD2"/>
<path d="M50.4587 37H3.02752C1.00917 37 0 38 0 40V70C0 72 1.00917 73 3.02752 73H16.1468C18.1651 73 19.1743 72 19.1743 70V57H90.8257V70C90.8257 72 91.8349 73 93.8532 73H106.972C108.991 73 110 72 110 70V40C110 38 108.991 37 106.972 37H50.4587Z" stroke="#333849"/>
<path d="M92.3257 57V55.5H90.8257H19.1743H17.6743V57V70C17.6743 70.7653 17.4827 71.0645 17.3616 71.1845C17.238 71.307 16.9282 71.5 16.1468 71.5H3.02752C2.24613 71.5 1.93629 71.307 1.81269 71.1845C1.6916 71.0645 1.5 70.7653 1.5 70V40C1.5 39.2347 1.6916 38.9355 1.81269 38.8155C1.93629 38.693 2.24613 38.5 3.02752 38.5H50.4587H106.972C107.754 38.5 108.064 38.693 108.187 38.8155C108.308 38.9355 108.5 39.2347 108.5 40V70C108.5 70.7653 108.308 71.0645 108.187 71.1845C108.064 71.307 107.754 71.5 106.972 71.5H93.8532C93.0718 71.5 92.762 71.307 92.6384 71.1845C92.5173 71.0645 92.3257 70.7653 92.3257 70V57Z" stroke="#333849" stroke-width="3"/>
</svg>
