<svg width="269" height="95" fill="none" xmlns="http://www.w3.org/2000/svg"><path fill-rule="evenodd" clip-rule="evenodd" d="M11.602 22.672c-2.2 0-4.352-.652-6.182-1.874A11.119 11.119 0 01.689 9.385a11.113 11.113 0 013.046-5.692 11.131 11.131 0 0112.128-2.407 11.125 11.125 0 014.993 4.097 11.109 11.109 0 011.874 6.177 11.082 11.082 0 01-3.253 7.865 11.1 11.1 0 01-7.875 3.247z" fill="#FFEC00"/><path fill-rule="evenodd" clip-rule="evenodd" d="M11.602 22.672c-2.2 0-4.352-.652-6.182-1.874A11.119 11.119 0 01.689 9.385a11.113 11.113 0 013.046-5.692 11.131 11.131 0 0112.128-2.407 11.125 11.125 0 014.993 4.097 11.109 11.109 0 011.874 6.177 11.082 11.082 0 01-3.253 7.865 11.1 11.1 0 01-7.875 3.247z" fill="#FFEC00"/><path d="M15.079.532A10.54 10.54 0 0011.69.006h-.083A11.614 11.614 0 003.4 3.402a11.591 11.591 0 000 16.4 11.614 11.614 0 008.208 3.397h.083a10.72 10.72 0 003.388-.614 11.574 11.574 0 005.85-4.19A11.556 11.556 0 0015.079.531zm0 21.624c-1.094.354-2.238.53-3.388.522h-.083a11.133 11.133 0 01-7.868-3.256 11.111 11.111 0 010-15.722A11.133 11.133 0 0111.608.444h.083c1.155.018 2.3.225 3.388.614a11.11 11.11 0 015.54 4.034 11.093 11.093 0 01-5.54 17.064z" fill="#1A1A18"/><path d="M19.337 6.085c.274.699.423 1.44.44 2.191 0 3.21-3.217 4.511-4.52 4.428h-.176c-.166 0-.258-.084-.258-.171 0-.263.087-.438.258-.438a.281.281 0 01.176-.084c.35 0 .439.084.78.084.343 0 .44-.264.61-.614a1.053 1.053 0 00.255-.78c0-.693-.697-2.083-1.04-3.385 0 .347 0 1.123-.342 1.123a.479.479 0 01-.439-.26c-.166-.258-.342-.604-.513-.876a4.33 4.33 0 010 1.04c0 .341-.092.604-.263.604s-.44-.263-.44-.877c0-.613.084-1.047.084-2.086A3.579 3.579 0 0011.69 2.6a4.08 4.08 0 00-1.04-.176c-3.04 0-3.391 2.775-3.558 2.858-.167.084-.35-.512-1.316-.512-1.128 0-2.348 1.477-2.778 2.35a9.575 9.575 0 00-1.132 4.505 9.688 9.688 0 002.871 6.835 9.706 9.706 0 006.866 2.81h.083a8.664 8.664 0 003.387-.698 9.536 9.536 0 006.179-8.947 9.703 9.703 0 00-1.826-5.641l-.088.1zM11.69 11.12a5.06 5.06 0 01-1.128-3.217c0-.6.18-.693.35-.693.352 0 .523.522.778 1.214.063.256.183.494.35.697.264.61.44.956.694 1.565-.059.44-.029.887.088 1.315a14.045 14.045 0 01-1.137-.88h.005zm3.387 5.988a2.04 2.04 0 01-1.996-2.082 2.59 2.59 0 01.438-1.315c.439.605 1.044 1.043 1.558.605l.088-.088c.438-.438.088-1.039-.088-1.214a2.045 2.045 0 012.089 1.999 2.112 2.112 0 01-2.089 2.1v-.005zM51.758 18.766l2.265-7.031 2.69-8.517H35.158l-4.958 15.548h8.087L41.68 7.825h5.471l-3.47 10.941h8.078zM72.355 13.554c.175-.346.956-2.775-.26-4.335-.692-.96-1.996-1.565-4.348-1.565a7.434 7.434 0 00-4.607 1.39c-.355.249-.677.543-.956.876l.697-1.995H56.19l-2.15 6.769-2.694 8.512h7.082l1.913-5.82c.346.52.952 1.314 2.782 1.564.373.07.752.097 1.132.083 4.866 0 6.954-2.866 7.823-4.69.12-.253.212-.517.277-.789zm-7.39 0c-.175.522-.61 1.753-1.825 2.082a1.64 1.64 0 01-.697.176c-1.756 0-1.317-1.649-1.04-2.438.263-.61.605-1.819 1.755-2.17.263 0 .438-.083.702-.083 1.82 0 1.316 1.644 1.123 2.433h-.017zM184.482 7.908h-7.126l-1.22 3.827h-2.523l1.221-3.827h-7.215l-2.864 8.86-.61 1.998h7.213l1.211-3.91h2.523l-1.215 3.91h7.125l2.264-7.03 1.216-3.828zM204.995 7.908h-8.17l-5.564 4.344 2.957-9.122h-7.217l-3.735 11.823-1.219 3.813h7.13l1.737-5.295 2.353 5.295h8.423l-3.304-6.08 6.609-4.778zM165.272 12.16c.088-.342.088-.6.175-.877a2.143 2.143 0 00-.697-1.999c-.878-.955-2.869-1.648-7.13-1.648h-1.65a32.792 32.792 0 00-4.779.605l-.956 3.042a21.428 21.428 0 015.305-.876h.439c2.694.083 2.953.775 2.869 1.315a.331.331 0 01-.016.14.33.33 0 01-.076.118c-.892-.11-1.79-.17-2.689-.175h-.088c-5.388 0-7.648 1.753-8.605 3.3a5.135 5.135 0 00-.346 1.04 1.835 1.835 0 00.346 1.652c.694.776 2.26 1.215 4.173 1.215a9.222 9.222 0 004.432-1.04c.438-.35.781-.613 1.04-.784l-.518 1.56h6.691l1.567-5.12.513-1.468zm-7.209 2.192a3.094 3.094 0 01-1.048 1.39 5.2 5.2 0 01-1.04.438 2.506 2.506 0 01-.782.083c-.957 0-1.474-.254-1.39-.776v-.263a1.827 1.827 0 011.39-1.039c.259 0 .439-.087.782-.087a6.892 6.892 0 011.478-.088h.698l-.088.342zM147.711 12.598a3.356 3.356 0 00-.346-2.525c-.698-1.315-2.607-2.345-6.516-2.345-.758.007-1.514.066-2.264.176-1.128.258-1.993.78-3.217 1.652.176-1.214 1.479-2.257 2.607-2.691.183-.11.392-.17.605-.176a25.366 25.366 0 013.309-.609 15.853 15.853 0 003.036-.522l.088-.17L146.768 0c-.264 0-.526.092-.781.092-1.22.171-2.435.346-3.738.522a18.66 18.66 0 00-3.655.955c-.171 0-.259.088-.439.088a13.464 13.464 0 00-3.91 2.692 19.887 19.887 0 00-3.304 5.378 15.793 15.793 0 00-1.479 4.344c-.087.171-1.478 4.945 7.214 4.945.637.016 1.275-.012 1.909-.083 5.91-.439 7.994-3.301 8.775-5.296.158-.33.276-.68.351-1.039zm-7.669.61c-.259.78-.61 2.082-1.479 2.516a1.418 1.418 0 01-.877.175c-1.391 0-1.045-1.477-.611-2.779a3.218 3.218 0 011.479-2.082c.217-.11.455-.17.697-.175 1.51-.005 1.16 1.297.791 2.345zM124.163 7.65a7.535 7.535 0 00-4.58 1.372 9.874 9.874 0 00-.957.876l.693-1.994h-6.722l-3.387 10.77-1.48 4.52h7.215l1.842-5.822c.347.522 1.045 1.315 2.782 1.565.401.072.808.1 1.216.083 5.651 0 7.647-3.993 8.082-5.47.417-1.556 1.461-5.9-4.704-5.9zm-2.786 5.904c-.171.61-.606 1.82-1.821 2.082a1.714 1.714 0 01-.698.176c-1.755 0-1.316-1.648-1.044-2.438.171-.609.693-1.753 1.755-2.077.249-.101.513-.16.781-.176 1.729 0 1.29 1.649 1.027 2.433zM109.21 15.29a7.932 7.932 0 001.316-2.604 3.257 3.257 0 00-1.316-3.735c-1.132-.784-3.128-1.315-6.34-1.315-.611-.018-1.223.01-1.831.084-5.993.438-8.082 2.954-8.863 4.515-.062.299-.15.592-.263.876-.171.697-.61 2.346.263 3.648.878 1.218 2.782 2.257 7.021 2.257.61.014 1.22-.014 1.825-.083 4.542-.347 6.88-1.995 8.188-3.643zm-6.521-2.192c-.259.785-.605 2.082-1.65 2.604-.279.111-.576.17-.877.175-1.646 0-.956-1.819-.601-2.779a3.094 3.094 0 011.47-2.17 2.52 2.52 0 01.78-.17c1.576.021 1.137 1.494.878 2.358v-.018zM92.784 7.908h-8.697l-5.124 6.426 2.347-6.426h-6.433l-2.781 8.684-.694 2.174h8.517l5.393-6.606-2.436 6.606h6.429l2.87-9.118.61-1.74z" fill="#1A1A18"/><path fill-rule="evenodd" clip-rule="evenodd" d="M263.674 6.006c0 .061.031.122.045.184a4.105 4.105 0 00-.045-.184zM263.467 5.431l.062.154-.062-.154zM263.34 5.177l.075.14-.075-.14zM263.578 5.708c0 .052.035.11.054.166a1.195 1.195 0 00-.054-.166zM263.805 6.668c0 .079 0 .162.026.24-.009-.078-.013-.161-.026-.24zM263.748 6.326c0 .065.022.136.036.206-.005-.07-.005-.14-.036-.206zM263.844 7.031v.39a2.31 2.31 0 000-.39zM251.12 10.31zM250.844 10.819l.061-.097-.061.097zM251.418 9.276zM250.844 16.53l1.356 2.227-1.356-2.227zM251.493 8.333z" fill="#1A1A18"/><path fill-rule="evenodd" clip-rule="evenodd" d="M250.654 11.09zM263.135 4.844l.066.097-.066-.097zM262.428 4.112l.049.04-.049-.04zM261.717 3.687l.092.044-.092-.044zM262.619 4.27l.066.066-.066-.066zM262.799 4.44l.07.08-.07-.08zM262.971 4.612l.071.087-.071-.087zM262.172 3.937l.057.035-.057-.035zM262.023 3.845l-.056-.031.056.03zM263.341 5.164l-.054-.096.054.096zM261.492 3.59l.097.04-.097-.04zM260.816 3.371l.101.027-.101-.027zM260.594 3.318l.101.022-.101-.022zM261.045 3.432l.101.031-.101-.03zM261.268 3.507l.101.035-.101-.035zM263.779 6.527c0 .044 0 .092.023.136-.023-.044-.023-.087-.023-.136zM263.832 6.909v.122c.009-.039.004-.078 0-.122zM263.414 5.318l.054.118-.054-.118zM263.633 5.874l.041.132-.041-.132zM263.717 6.19c0 .044 0 .092.032.136-.01-.049-.023-.092-.032-.136zM263.529 5.585l.049.123-.049-.123z" fill="white"/><path fill-rule="evenodd" clip-rule="evenodd" d="M263.34 3.143v.702c.72.719 1.316 1.836 1.316 3.572a4.025 4.025 0 01-.298 1.742 4.026 4.026 0 01-1.018 1.445 4.219 4.219 0 012.032 3.608 4.645 4.645 0 01-1.378 3.428 5.423 5.423 0 01-.654.56v.553h5.327V3.143h-5.327z" fill="#1A1A18"/><path fill-rule="evenodd" clip-rule="evenodd" d="M264.587 14.212a3.293 3.293 0 00-.321-1.46 3.292 3.292 0 00-.93-1.17 4.826 4.826 0 00-1.826-.912 3.034 3.034 0 001.826-1.258 3.462 3.462 0 00.527-1.986v-.39-.123c0-.04 0-.167-.027-.241-.027-.075 0-.092-.022-.136-.022-.044 0-.136-.035-.206-.035-.07 0-.092-.031-.136-.031-.044-.031-.123-.043-.184l-.04-.131c0-.057-.035-.11-.052-.167l-.049-.123-.061-.153-.053-.114-.075-.14-.052-.097-.084-.131-.066-.097-.092-.123-.07-.087-.101-.114-.07-.08-.114-.109-.066-.065-.145-.119-.048-.04-.197-.14-.057-.035-.15-.092-.057-.03h-.021l-.132-.07-.092-.044-.127-.057-.097-.04-.127-.048-.101-.035-.127-.044-.101-.03-.123-.036-.101-.026-.124-.03-.1-.023-.128-.026H259.756l-.404-.026h-8.508v.736c.878.877 1.452 2.271 1.457 4.454a5.059 5.059 0 01-.34 2.029 5.058 5.058 0 01-1.117 1.728v2.888l2.04 3.358.255.439h6.196a6.586 6.586 0 004.001-1.587 3.878 3.878 0 001.251-3.121zm-8.408-7.452h1.054a1.256 1.256 0 011.237.676c.076.148.123.31.136.477 0 .644-.601 1.144-1.4 1.17h-1.027V6.76zm1.457 8.228h-1.44V12.41h1.638a1.258 1.258 0 011.277 1.28 1.406 1.406 0 01-1.475 1.298z" fill="#1A1A18"/><path fill-rule="evenodd" clip-rule="evenodd" d="M250.036 15.207l-1.615-2.657c.342-.08.67-.209.974-.381.152-.079.299-.167.44-.263l.219-.171a3.613 3.613 0 00.487-.478l.132-.167c.065-.083.127-.175.184-.271l.061-.097a3.96 3.96 0 00.216-.438 4.52 4.52 0 00.337-1.324 6.03 6.03 0 00.035-.644 6.373 6.373 0 00-.649-3.095 3.653 3.653 0 00-.562-.772 3.942 3.942 0 00-.241-.223l-.153-.123c-.08-.057-.158-.114-.242-.167l-.255-.144a4.287 4.287 0 00-.912-.36 7.272 7.272 0 00-1.076-.21c-.184-.022-.372-.04-.561-.053l-.571-.03H238v15.614h5.328v-5.914l2.948 5.914h5.919l-1.351-2.227-.808-1.32zm-4.208-5.94a1.383 1.383 0 01-.228.346l-.101.101a1.619 1.619 0 01-1.084.412h-1.118V7.338h1.307c.099.009.198.026.294.053l.171.061a1.414 1.414 0 01.619.487l.074.114c.117.202.178.432.176.666.003.188-.034.375-.11.548zM224.196 25.346h1.588a2.11 2.11 0 01-.719 1.192c-.346.32-.798.5-1.268.504a1.538 1.538 0 01-1.317-.644c-.3-.422-.454-.93-.439-1.447.001-.176.014-.352.04-.526.103-.665.385-1.29.816-1.806a2.186 2.186 0 011.721-.877c.356-.006.705.113.982.338.261.224.448.522.536.855l1.398-.693a2.519 2.519 0 00-1.008-1.315 2.965 2.965 0 00-1.663-.465 3.988 3.988 0 00-2.861 1.18 4.874 4.874 0 00-1.431 2.788 4.385 4.385 0 00-.061.714 3.267 3.267 0 00.785 2.253 2.814 2.814 0 002.225.943 3.616 3.616 0 002.76-1.201 5.257 5.257 0 001.299-2.802l.03-.188h-3.229l-.184 1.197zM235.059 23.768l.079-.505h-1.386l-.777 4.87h1.387l.346-2.191c.046-.38.16-.748.338-1.087a1.102 1.102 0 01.983-.53.829.829 0 01.548.188l.369-1.289a1.464 1.464 0 00-.558-.118 1.626 1.626 0 00-1.329.662zM244.91 23.101a2.87 2.87 0 00-1.961.728 3.216 3.216 0 00-1.049 2.358 2.043 2.043 0 00.592 1.521 2.2 2.2 0 001.593.58 2.897 2.897 0 001.97-.724 3.009 3.009 0 001.009-1.868c.026-.159.04-.32.04-.482a2.045 2.045 0 00-.597-1.534 2.193 2.193 0 00-1.597-.579zm.373 3.437a1.246 1.246 0 01-1 .53.878.878 0 01-.72-.35 1.235 1.235 0 01-.242-.78c.004-.396.142-.78.391-1.088a1.274 1.274 0 011.014-.53.839.839 0 01.706.329c.173.23.263.51.254.798a1.7 1.7 0 01-.403 1.082v.01zM255.943 25.903c-.134.812-.469 1.218-1.005 1.218-.435 0-.653-.251-.653-.754.003-.157.026-.313.066-.464l.408-2.63h-1.387l-.439 2.866a3.196 3.196 0 00-.048.535c0 1.084.629 1.626 1.887 1.626 1.462 0 2.306-.72 2.531-2.16l.44-2.867h-1.387l-.413 2.63zM268.166 23.737a1.663 1.663 0 00-1.382-.635 1.972 1.972 0 00-1.443.605l.07-.439h-1.387l-1.18 7.479h1.373l.474-3.069a1.254 1.254 0 001.203.614 2.443 2.443 0 001.956-.99 3.212 3.212 0 00.755-2.087 2.244 2.244 0 00-.439-1.478zm-1.36 2.793a1.254 1.254 0 01-.996.53.874.874 0 01-.72-.35 1.281 1.281 0 01-.241-.79c.001-.395.142-.777.4-1.078a1.231 1.231 0 01.996-.53.834.834 0 01.706.35c.172.223.26.5.25.78-.002.398-.14.782-.395 1.088z" fill="#1A1A18"/><path fill-rule="evenodd" clip-rule="evenodd" d="M220.641 3.126h15.617l.003 15.614-15.62-.009V3.126z" fill="#D8D9D9"/><path fill-rule="evenodd" clip-rule="evenodd" d="M220.641 3.126h15.617l.003 15.614-15.62-.009V3.126z" fill="#1A1A18"/><path fill-rule="evenodd" clip-rule="evenodd" d="M221.063 18.302l-.004-14.738h14.76l-.013 14.742-14.743-.005z" fill="#FFEC00"/><path fill-rule="evenodd" clip-rule="evenodd" d="M228.427 12.809l4.699 4.686 1.838-1.837-4.703-4.695.917-.907V8.228l.654-.653v1.517l.64.63 2.296-2.296.618.614a4.116 4.116 0 00-1.206-2.819 1.974 1.974 0 00-2.205-.517c-.251.1-.477.251-.666.442l-2.193 2.21.553.552-1.22 1.214-1.22-1.214.553-.552-2.215-2.214a1.977 1.977 0 00-1.452-.584 1.973 1.973 0 00-1.419.659 4.049 4.049 0 00-1.184 2.818l.596-.614 2.295 2.298.641-.636V7.575l.653.653v1.824l.918.911-4.66 4.651 1.838 1.833 4.634-4.638z" fill="#1A1A18"/><path d="M175 48v1H95v-1h80z" fill="#23367E"/><path d="M135.64 77.312c-.046 3.622 3.228 5.643 5.694 6.845 2.534 1.233 3.385 2.023 3.375 3.126-.019 1.687-2.021 2.432-3.895 2.46-3.269.052-5.169-.882-6.68-1.587l-1.178 5.51c1.516.698 4.323 1.307 7.234 1.334 6.833 0 11.303-3.373 11.327-8.602.027-6.637-9.18-7.004-9.117-9.97.022-.9.88-1.86 2.761-2.104.931-.123 3.501-.218 6.414 1.124l1.144-5.331c-1.567-.57-3.581-1.117-6.088-1.117-6.431 0-10.955 3.419-10.991 8.312zm28.067-7.853a2.965 2.965 0 00-2.768 1.845l-9.76 23.304h6.827l1.359-3.754h8.344l.788 3.754h6.017l-5.251-25.149h-5.556zm.955 6.794l1.971 9.444h-5.397l3.426-9.444zm-37.3-6.794l-5.382 25.15h6.506l5.38-25.15h-6.504zm-9.625 0l-6.772 17.118-2.739-14.555c-.322-1.625-1.591-2.563-3.001-2.563h-11.07l-.155.73c2.273.494 4.855 1.29 6.419 2.14.957.52 1.231.975 1.545 2.21l5.188 20.07h6.876l10.541-25.15h-6.832z" fill="url(#paint0_linear)"/><defs><linearGradient id="paint0_linear" x1="131.016" y1="95.522" x2="131.768" y2="68.819" gradientUnits="userSpaceOnUse"><stop stop-color="#222357"/><stop offset="1" stop-color="#254AA5"/></linearGradient></defs></svg>