<svg width="464" height="75" fill="none" xmlns="http://www.w3.org/2000/svg"><path fill-rule="evenodd" clip-rule="evenodd" d="M13.387 46.16c-2.54 0-5.022-.752-7.133-2.162A12.815 12.815 0 014.31 24.26a12.844 12.844 0 0113.993-2.777 12.838 12.838 0 015.761 4.726 12.819 12.819 0 012.162 7.128 12.786 12.786 0 01-3.754 9.076 12.807 12.807 0 01-9.086 3.746z" fill="#FFEC00"/><path fill-rule="evenodd" clip-rule="evenodd" d="M13.387 46.16c-2.54 0-5.022-.752-7.133-2.162A12.815 12.815 0 014.31 24.26a12.844 12.844 0 0113.993-2.777 12.838 12.838 0 015.761 4.726 12.819 12.819 0 012.162 7.128 12.786 12.786 0 01-3.754 9.076 12.807 12.807 0 01-9.086 3.746z" fill="#FFEC00"/><path d="M17.398 20.613a12.16 12.16 0 00-3.908-.607h-.096a13.4 13.4 0 00-9.471 3.919 13.374 13.374 0 000 18.923 13.4 13.4 0 009.47 3.92h.097a12.371 12.371 0 003.908-.709 13.354 13.354 0 006.75-4.836 13.334 13.334 0 000-15.774 13.354 13.354 0 00-6.75-4.836zm0 24.95a12.413 12.413 0 01-3.908.603h-.096a12.846 12.846 0 01-9.079-3.757 12.82 12.82 0 010-18.14 12.846 12.846 0 019.079-3.757h.096c1.333.02 2.653.26 3.908.708a12.818 12.818 0 016.393 4.655 12.799 12.799 0 01-6.393 19.689z" fill="#1A1A18"/><path d="M22.314 27.02a7.38 7.38 0 01.506 2.53c0 3.702-3.711 5.204-5.215 5.108h-.202c-.193 0-.299-.096-.299-.197 0-.304.101-.506.299-.506a.324.324 0 01.202-.096c.405 0 .506.096.901.096s.507-.303.704-.708a1.218 1.218 0 00.294-.9c0-.8-.805-2.403-1.2-3.905 0 .4 0 1.295-.395 1.295a.552.552 0 01-.506-.299c-.193-.298-.395-.698-.593-1.011a4.9 4.9 0 010 1.198c0 .395-.106.698-.303.698-.198 0-.507-.303-.507-1.011s.096-1.21.096-2.408A4.13 4.13 0 0013.49 23a4.713 4.713 0 00-1.2-.202c-3.508 0-3.913 3.202-4.106 3.298-.192.096-.405-.592-1.519-.592-1.3 0-2.708 1.705-3.204 2.711a11.048 11.048 0 00-1.307 5.2A11.178 11.178 0 005.466 41.3a11.2 11.2 0 007.922 3.241h.096a9.998 9.998 0 003.908-.804c2.1-.79 3.908-2.202 5.182-4.047a10.989 10.989 0 001.947-6.276 11.196 11.196 0 00-2.106-6.51l-.101.116zm-8.825 5.812a5.84 5.84 0 01-1.301-3.712c0-.693.207-.8.405-.8.405 0 .602.602.896 1.401.073.296.211.57.405.805.304.703.506 1.102.8 1.805a3.852 3.852 0 00.101 1.518 16.165 16.165 0 01-1.311-1.017h.005zm3.909 6.91a2.357 2.357 0 01-2.144-1.5 2.351 2.351 0 01-.16-.903 2.988 2.988 0 01.506-1.518c.507.698 1.205 1.204 1.798.698l.1-.1c.507-.507.102-1.2-.1-1.402a2.361 2.361 0 012.41 2.307 2.436 2.436 0 01-2.41 2.422v-.005zm42.323 1.911l2.613-8.113 3.104-9.828H40.569l-5.721 17.941h9.33l3.914-12.625h6.314L50.4 41.653h9.32zm23.766-6.013c.203-.4 1.104-3.202-.299-5.003-.8-1.108-2.303-1.806-5.017-1.806a8.577 8.577 0 00-5.316 1.604c-.41.288-.781.628-1.104 1.011l.805-2.301h-7.72l-2.481 7.81-3.109 9.822h8.172l2.207-6.717c.4.602 1.099 1.517 3.21 1.806.43.08.869.112 1.306.096 5.615 0 8.025-3.308 9.027-5.412a4.82 4.82 0 00.32-.91zm-8.526 0c-.202.601-.704 2.022-2.106 2.402a1.89 1.89 0 01-.805.202c-2.025 0-1.519-1.902-1.2-2.812.304-.703.699-2.1 2.025-2.504.304 0 .507-.096.81-.096 2.102 0 1.52 1.897 1.296 2.807h-.02zm137.902-6.515h-8.222l-1.407 4.415h-2.911l1.408-4.415h-8.324l-3.306 10.222-.704 2.306h8.324l1.398-4.511h2.91l-1.402 4.511h8.222l2.612-8.113 1.402-4.415zm23.669 0h-9.427l-6.419 5.012 3.412-10.526h-8.328l-4.309 13.642-1.407 4.4h8.227l2.004-6.11 2.714 6.11h9.72l-3.812-7.015 7.625-5.513zm-45.835 4.905c.102-.394.102-.692.203-1.01a2.473 2.473 0 00-.805-2.307c-1.013-1.103-3.311-1.902-8.227-1.902h-1.904c-1.852.097-3.694.33-5.513.698l-1.104 3.51a24.72 24.72 0 016.122-1.011h.505c3.109.096 3.408.895 3.311 1.517a.368.368 0 01-.106.299 26.559 26.559 0 00-3.103-.203h-.102c-6.216 0-8.824 2.023-9.928 3.809-.175.384-.31.786-.399 1.199a2.122 2.122 0 00.399 1.906c.801.896 2.607 1.402 4.816 1.402a10.636 10.636 0 005.112-1.2 18.08 18.08 0 011.2-.905l-.597 1.801h7.721l1.807-5.908.592-1.694zm-8.317 2.53a3.578 3.578 0 01-1.21 1.603 6.017 6.017 0 01-1.2.506 2.86 2.86 0 01-.902.096c-1.104 0-1.7-.293-1.604-.895v-.303a2.098 2.098 0 011.604-1.2c.299 0 .507-.1.902-.1a7.96 7.96 0 011.706-.102h.805l-.101.395zm-11.944-2.023a3.868 3.868 0 00-.399-2.914c-.805-1.517-3.008-2.706-7.518-2.706a19.18 19.18 0 00-2.613.202c-1.302.299-2.299.9-3.711 1.907.202-1.4 1.706-2.604 3.007-3.105.212-.126.452-.196.699-.203a29.259 29.259 0 013.817-.703 18.3 18.3 0 003.504-.602l.102-.197L169.349 20c-.305 0-.608.106-.902.106-1.408.197-2.81.4-4.313.602-1.44.224-2.853.594-4.218 1.103-.197 0-.299.1-.506.1a15.552 15.552 0 00-4.512 3.106 22.974 22.974 0 00-3.812 6.207 18.258 18.258 0 00-1.706 5.012c-.1.197-1.706 5.705 8.323 5.705.736.018 1.472-.014 2.203-.096 6.82-.505 9.224-3.808 10.125-6.11.183-.382.319-.784.405-1.198zm-8.849.703c-.299.9-.704 2.402-1.707 2.903a1.632 1.632 0 01-1.011.202c-1.606 0-1.206-1.704-.704-3.207a3.697 3.697 0 011.705-2.402 1.89 1.89 0 01.805-.202c1.742-.005 1.338 1.497.912 2.706zm-18.322-6.414a8.699 8.699 0 00-5.286 1.584c-.389.312-.759.65-1.103 1.011l.799-2.301h-7.756l-3.908 12.427-1.707 5.215h8.324l2.125-6.717c.401.602 1.206 1.517 3.211 1.806.462.083.932.115 1.402.096 6.521 0 8.825-4.608 9.326-6.313.481-1.795 1.686-6.808-5.427-6.808zm-3.215 6.813c-.198.703-.7 2.1-2.101 2.403a1.978 1.978 0 01-.806.202c-2.025 0-1.519-1.902-1.204-2.812.197-.703.799-2.023 2.025-2.398.287-.116.592-.184.901-.202 1.994 0 1.488 1.902 1.185 2.807zm-14.04 2.003a9.183 9.183 0 001.519-3.004 3.764 3.764 0 00-1.519-4.31c-1.306-.905-3.61-1.517-7.316-1.517a14.04 14.04 0 00-2.112.096c-6.915.506-9.325 3.41-10.226 5.21a6.146 6.146 0 01-.304 1.011c-.197.804-.704 2.706.304 4.209 1.012 1.406 3.21 2.604 8.101 2.604.703.017 1.407-.016 2.105-.096 5.241-.4 7.939-2.301 9.448-4.203zm-7.524-2.529c-.299.905-.698 2.403-1.904 3.005a2.851 2.851 0 01-1.011.202c-1.9 0-1.104-2.1-.694-3.207a3.565 3.565 0 01.57-1.44 3.607 3.607 0 011.125-1.064 2.91 2.91 0 01.901-.197c1.818.025 1.312 1.725 1.013 2.721v-.02zm-11.426-5.988H97.026l-5.914 7.415 2.709-7.415h-7.423l-3.21 10.02-.8 2.508h9.829l6.222-7.622-2.81 7.622h7.417l3.311-10.52.704-2.008z" fill="#1A1A18"/><path fill-rule="evenodd" clip-rule="evenodd" d="M304.238 26.93c0 .07.036.141.052.212-.016-.07-.031-.142-.052-.213zm-.239-.663l.072.177-.072-.177zm-.146-.294l.086.162-.086-.162zm.275.613c0 .06.04.126.062.192a1.426 1.426 0 00-.062-.192zm.263 1.107c0 .091 0 .188.03.278-.01-.09-.015-.187-.03-.278zm-.066-.394c0 .076.026.157.042.238-.006-.081-.006-.162-.042-.238zm.11.814v.45a2.603 2.603 0 000-.45zm-14.68 3.783zm-.32.587l.07-.111-.07.11zm.664-1.78zm-.664 8.371l1.564 2.569-1.564-2.57zm.748-9.459z" fill="#1A1A18"/><path fill-rule="evenodd" clip-rule="evenodd" d="M289.217 32.797zm14.399-7.207l.077.11-.077-.11zm-.815-.846l.056.045-.056-.045zm-.821-.49l.107.05-.107-.05zm1.042.673l.077.075-.077-.075zm.208.197l.081.09-.081-.09zm.199.197l.082.101-.082-.1zm-.922-.779l.065.04-.065-.04zm-.173-.106l-.064-.035.064.035zm1.521 1.522l-.062-.111.062.111zm-2.132-1.816l.111.046-.111-.046zm-.782-.252l.117.03-.117-.03zm-.256-.061l.116.025-.116-.025zm.521.131l.116.036-.116-.036zm.258.086l.117.04-.117-.04zm2.896 3.486c0 .05 0 .106.026.156-.026-.05-.026-.1-.026-.156zm.061.439v.142c.01-.045.004-.09 0-.142zm-.482-1.835l.062.136-.062-.136zm.253.642l.048.151-.048-.151zm.097.364c0 .05 0 .106.037.157-.011-.056-.027-.107-.037-.157zm-.218-.698l.056.142-.056-.142z" fill="white"/><path fill-rule="evenodd" clip-rule="evenodd" d="M303.853 23.627v.809c.83.83 1.518 2.12 1.518 4.122a4.639 4.639 0 01-.343 2.01 4.645 4.645 0 01-1.175 1.667 4.874 4.874 0 012.344 4.163 5.36 5.36 0 01-1.59 3.955 6.29 6.29 0 01-.754.648v.637H310V23.627h-6.147z" fill="#1A1A18"/><path fill-rule="evenodd" clip-rule="evenodd" d="M305.292 36.398a3.805 3.805 0 00-.37-1.685 3.794 3.794 0 00-1.073-1.35 5.576 5.576 0 00-2.107-1.052 3.5 3.5 0 002.107-1.451 4 4 0 00.608-2.292v-.591c0-.046 0-.193-.032-.279-.03-.086 0-.106-.024-.156-.026-.051 0-.157-.041-.238-.041-.081 0-.106-.035-.157-.036-.05-.036-.141-.051-.212l-.046-.152c0-.066-.04-.127-.06-.192l-.056-.142-.071-.177-.061-.131-.086-.162-.061-.112-.096-.151-.076-.112-.107-.141-.08-.101-.117-.132-.08-.09-.132-.127-.076-.076-.167-.137-.056-.045-.227-.162-.066-.04-.173-.107-.066-.035h-.024l-.153-.081-.106-.05-.147-.067-.111-.045-.147-.056-.116-.04-.147-.05-.117-.036-.142-.04-.116-.031-.142-.035-.117-.026-.146-.03h-.865l-.466-.03h-9.817v.85c1.013 1.011 1.675 2.62 1.681 5.138a5.859 5.859 0 01-1.681 4.335v3.333l2.353 3.875.295.505h7.149a7.602 7.602 0 004.617-1.83 4.47 4.47 0 001.443-3.602zm-9.701-8.598h1.215a1.451 1.451 0 011.585 1.33c0 .743-.694 1.32-1.615 1.35h-1.185V27.8zm1.681 9.493h-1.661V34.32h1.889a1.457 1.457 0 011.368.91c.073.18.109.373.105.567a1.618 1.618 0 01-1.701 1.497z" fill="#1A1A18"/><path fill-rule="evenodd" clip-rule="evenodd" d="M288.503 37.546l-1.863-3.065a4.306 4.306 0 001.124-.44c.174-.09.344-.192.507-.304l.253-.197a4.384 4.384 0 00.561-.551l.153-.192a3.02 3.02 0 00.212-.314l.071-.111a4.47 4.47 0 00.248-.506 2.72 2.72 0 00.107-.268 5.252 5.252 0 00.283-1.26c.027-.246.04-.495.04-.743a7.366 7.366 0 00-.749-3.571 4.206 4.206 0 00-.648-.89 4.438 4.438 0 00-.278-.258l-.177-.142a5.988 5.988 0 00-.279-.192l-.294-.167a4.966 4.966 0 00-1.052-.415 8.413 8.413 0 00-1.242-.242c-.212-.026-.43-.046-.648-.061l-.658-.035h-9.559v18.016h6.147v-6.823l3.402 6.823h6.83l-1.559-2.57-.932-1.522zm-4.855-6.854c-.067.146-.157.28-.263.4l-.117.116a1.866 1.866 0 01-1.251.476h-1.29v-3.217h1.508c.115.01.229.03.34.06l.197.072c.186.076.358.186.507.323.076.072.146.152.207.238l.086.131c.134.234.205.5.202.77a1.51 1.51 0 01-.126.631zm-24.961 18.553h1.833a2.438 2.438 0 01-.83 1.376c-.399.37-.92.577-1.463.581a1.772 1.772 0 01-1.519-.743 2.738 2.738 0 01-.507-1.67 4.11 4.11 0 01.046-.606 4.268 4.268 0 01.941-2.084 2.543 2.543 0 011.986-1.012c.411-.008.813.13 1.133.39.302.258.518.602.618.986l1.614-.799a2.907 2.907 0 00-1.164-1.517 3.419 3.419 0 00-1.918-.536 4.605 4.605 0 00-3.301 1.36 5.614 5.614 0 00-1.651 3.217 4.95 4.95 0 00-.071.824c-.036.95.287 1.879.906 2.6a3.235 3.235 0 002.568 1.088 4.17 4.17 0 003.184-1.386 6.069 6.069 0 001.499-3.232l.035-.218h-3.727l-.212 1.381zm12.536-1.821l.09-.581h-1.599l-.897 5.619h1.601l.4-2.529a3.62 3.62 0 01.389-1.254 1.272 1.272 0 011.135-.612.957.957 0 01.632.217l.426-1.487a1.688 1.688 0 00-.644-.136 1.872 1.872 0 00-1.533.763zm11.366-.769a3.312 3.312 0 00-2.263.84 3.716 3.716 0 00-1.21 2.721 2.364 2.364 0 00.683 1.755 2.532 2.532 0 001.838.668 3.342 3.342 0 002.273-.835 3.47 3.47 0 001.164-2.154 3.35 3.35 0 00.046-.557 2.338 2.338 0 00-.158-.957 2.34 2.34 0 00-.53-.813 2.532 2.532 0 00-1.843-.668zm.43 3.966a1.436 1.436 0 01-1.154.612 1.01 1.01 0 01-.83-.405 1.42 1.42 0 01-.279-.9c.005-.457.163-.9.451-1.255a1.463 1.463 0 011.17-.611.97.97 0 01.815.379c.199.265.303.59.293.92-.005.458-.169.9-.466 1.25v.01zm12.299-.733c-.155.937-.542 1.406-1.159 1.406-.503 0-.755-.29-.755-.87.005-.181.03-.361.076-.536l.472-3.035h-1.601l-.506 3.308a3.64 3.64 0 00-.056.617c0 1.25.726 1.876 2.177 1.876 1.688 0 2.662-.83 2.921-2.493l.507-3.308h-1.6l-.476 3.035zm14.105-2.499a1.926 1.926 0 00-1.595-.733 2.28 2.28 0 00-1.666.697l.081-.505h-1.6l-1.362 8.629h1.585l.546-3.54a1.448 1.448 0 001.388.708 2.818 2.818 0 002.258-1.144 3.712 3.712 0 00.871-2.408 2.592 2.592 0 00-.506-1.704zm-1.569 3.222a1.462 1.462 0 01-1.15.612 1.012 1.012 0 01-.83-.405 1.477 1.477 0 01-.279-.91 1.92 1.92 0 01.461-1.245 1.435 1.435 0 011.15-.611.96.96 0 01.814.404c.198.257.3.576.289.9a1.975 1.975 0 01-.455 1.255z" fill="#1A1A18"/><path fill-rule="evenodd" clip-rule="evenodd" d="M254.587 23.606h18.019l.005 18.017-18.024-.01V23.606z" fill="#D8D9D9"/><path fill-rule="evenodd" clip-rule="evenodd" d="M254.587 23.606h18.019l.005 18.017-18.024-.01V23.606z" fill="#1A1A18"/><path fill-rule="evenodd" clip-rule="evenodd" d="M255.074 41.117l-.006-17.005H272.1l-.015 17.01-17.011-.005z" fill="#FFEC00"/><path fill-rule="evenodd" clip-rule="evenodd" d="M263.568 34.78l5.422 5.406 2.121-2.119-5.427-5.417 1.059-1.047v-2.11l.754-.753v1.75l.739.729 2.648-2.65.714.707a4.753 4.753 0 00-1.392-3.252 2.275 2.275 0 00-2.544-.597c-.289.116-.55.29-.768.511l-2.531 2.55.638.637-1.408 1.4-1.407-1.4.638-.638-2.556-2.554a2.282 2.282 0 00-1.675-.674 2.271 2.271 0 00-1.637.76 4.674 4.674 0 00-1.367 3.252l.688-.708 2.648 2.65.739-.733v-1.74l.755.754v2.104l1.058 1.052-5.377 5.366 2.121 2.115 5.347-5.352z" fill="#1A1A18"/><path d="M340 0h1v75h-1V0z" fill="#23367E"/><path d="M419.046 31.59c-.053 4.18 3.725 6.512 6.57 7.898 2.924 1.423 3.905 2.335 3.894 3.607-.022 1.948-2.332 2.807-4.494 2.84-3.771.059-5.964-1.018-7.708-1.833l-1.358 6.358c1.749.806 4.988 1.51 8.346 1.54 7.884 0 13.042-3.892 13.07-9.926.031-7.657-10.592-8.081-10.52-11.504.025-1.038 1.016-2.145 3.186-2.427 1.074-.142 4.039-.251 7.401 1.297l1.319-6.151c-1.807-.659-4.131-1.289-7.024-1.289-7.42 0-12.64 3.945-12.682 9.59zm32.385-9.06c-1.439 0-2.652.84-3.194 2.128l-11.262 26.89h7.878l1.568-4.332h9.627l.91 4.332h6.943l-6.059-29.018h-6.411zm1.102 7.839l2.274 10.896h-6.227l3.953-10.896zm-43.038-7.839l-6.21 29.018h7.507l6.207-29.018h-7.504zm-11.106 0l-7.814 19.75-3.161-16.793c-.371-1.875-1.835-2.957-3.462-2.957h-12.773l-.179.842c2.622.57 5.602 1.487 7.407 2.47 1.104.6 1.419 1.124 1.782 2.55l5.987 23.156h7.934l12.162-29.018h-7.883z" fill="url(#paint0_linear)"/><defs><linearGradient id="paint0_linear" x1="371" y1="22" x2="465.285" y2="27.348" gradientUnits="userSpaceOnUse"><stop stop-color="#222357"/><stop offset="1" stop-color="#254AA5"/></linearGradient></defs></svg>