<svg width="271" height="31" fill="none" xmlns="http://www.w3.org/2000/svg"><g clip-path="url(#clip0)"><path fill-rule="evenodd" clip-rule="evenodd" d="M11.745 22.861A11.23 11.23 0 011.376 15.94 11.201 11.201 0 013.811 3.72a11.226 11.226 0 0112.232-2.427 11.22 11.22 0 015.035 4.131 11.204 11.204 0 011.89 6.23 11.177 11.177 0 01-3.281 7.933 11.193 11.193 0 01-7.942 3.274z" fill="#FFEC00"/><path fill-rule="evenodd" clip-rule="evenodd" d="M11.745 22.861A11.23 11.23 0 011.376 15.94 11.201 11.201 0 013.811 3.72a11.226 11.226 0 0112.232-2.427 11.22 11.22 0 015.035 4.131 11.204 11.204 0 011.89 6.23 11.177 11.177 0 01-3.281 7.933 11.193 11.193 0 01-7.942 3.274z" fill="#FFEC00"/><path d="M15.251.53A10.63 10.63 0 0011.835 0h-.084a11.713 11.713 0 00-8.278 3.426 11.69 11.69 0 000 16.54 11.713 11.713 0 008.278 3.425h.084a10.815 10.815 0 003.416-.618 11.673 11.673 0 005.9-4.228 11.654 11.654 0 000-13.787c-1.466-2-3.533-3.48-5.9-4.228zm0 21.81a10.85 10.85 0 01-3.416.525h-.084c-2.976 0-5.83-1.18-7.935-3.284a11.206 11.206 0 010-15.855A11.228 11.228 0 0111.75.442h.084a10.63 10.63 0 013.416.619A11.205 11.205 0 0120.84 5.13a11.187 11.187 0 01-5.588 17.21z" fill="#1A1A18"/><path d="M19.547 6.132c.276.705.426 1.453.442 2.21 0 3.237-3.243 4.55-4.558 4.466h-.177c-.168 0-.26-.084-.26-.173 0-.265.088-.442.26-.442a.283.283 0 01.177-.084c.354 0 .443.084.788.084.345 0 .442-.265.615-.619a1.065 1.065 0 00.257-.787c0-.698-.704-2.1-1.05-3.413 0 .35 0 1.132-.344 1.132a.483.483 0 01-.443-.26c-.168-.262-.345-.61-.518-.885.043.348.043.7 0 1.048 0 .345-.092.61-.265.61-.173 0-.443-.265-.443-.884 0-.62.085-1.057.085-2.105a3.609 3.609 0 00-2.28-3.413 4.115 4.115 0 00-1.048-.177c-3.067 0-3.421 2.799-3.59 2.883-.167.084-.353-.517-1.327-.517-1.137 0-2.367 1.49-2.801 2.37a9.657 9.657 0 00-1.142 4.544 9.77 9.77 0 002.896 6.893 9.789 9.789 0 006.924 2.833h.084a8.739 8.739 0 003.416-.703 9.605 9.605 0 006.23-9.023 9.786 9.786 0 00-1.84-5.69l-.088.102zm-7.713 5.08a5.104 5.104 0 01-1.138-3.245c0-.606.182-.699.354-.699.354 0 .527.526.784 1.225.063.258.184.498.354.703.265.614.442.963.699 1.578-.06.444-.03.894.088 1.326a14.12 14.12 0 01-1.146-.888h.005zm3.416 6.039a2.058 2.058 0 01-2.014-2.1c.024-.474.178-.933.443-1.326.442.61 1.053 1.052 1.57.61l.09-.089c.442-.442.088-1.048-.09-1.225a2.064 2.064 0 012.107 2.016 2.13 2.13 0 01-2.106 2.118v-.004zM52.245 18.922l2.283-7.091 2.713-8.59H35.504l-5 15.68h8.155L42.08 7.888h5.518l-3.5 11.035h8.147zM73.017 13.665c.177-.349.965-2.798-.26-4.372-.7-.968-2.014-1.578-4.386-1.578a7.497 7.497 0 00-4.647 1.401 5.038 5.038 0 00-.964.884l.703-2.011h-6.748l-2.169 6.826L51.83 23.4h7.143l1.929-5.87c.35.525.96 1.326 2.806 1.578.376.07.759.098 1.141.084 4.908 0 7.014-2.892 7.89-4.73.12-.256.214-.522.28-.797zm-7.452 0c-.177.527-.615 1.769-1.84 2.1-.22.11-.46.171-.704.177-1.77 0-1.328-1.662-1.05-2.458.266-.614.612-1.835 1.771-2.188.265 0 .443-.084.708-.084 1.837 0 1.328 1.658 1.133 2.453h-.018zM186.101 7.971h-7.187l-1.23 3.86h-2.545l1.231-3.86h-7.276l-2.889 8.935-.615 2.016h7.275l1.222-3.944h2.543l-1.224 3.944h7.185l2.284-7.091 1.226-3.86zM206.789 7.971h-8.239l-5.611 4.381 2.982-9.2h-7.279l-3.767 11.924-1.229 3.846h7.19l1.753-5.34 2.372 5.34h8.496l-3.332-6.132 6.664-4.819zM166.727 12.26c.089-.345.089-.606.177-.885a2.157 2.157 0 00-.703-2.016c-.886-.963-2.894-1.662-7.191-1.662h-1.664c-1.619.085-3.23.289-4.82.61l-.964 3.068a21.598 21.598 0 015.35-.884h.443c2.716.084 2.978.783 2.893 1.326a.337.337 0 01-.016.141.333.333 0 01-.076.12 23.247 23.247 0 00-2.712-.177h-.089c-5.434 0-7.714 1.769-8.678 3.33a5.158 5.158 0 00-.35 1.047 1.853 1.853 0 00.35 1.667c.699.782 2.278 1.224 4.208 1.224a9.302 9.302 0 004.47-1.047c.442-.354.787-.62 1.048-.792l-.522 1.574h6.748l1.58-5.163.518-1.482zm-7.27 2.21a3.117 3.117 0 01-1.058 1.401 5.222 5.222 0 01-1.048.443c-.258.069-.523.097-.789.084-.965 0-1.486-.257-1.402-.783v-.265a1.837 1.837 0 011.402-1.048c.261 0 .443-.088.789-.088a6.949 6.949 0 011.491-.089h.703l-.088.345zM149.017 12.702a3.383 3.383 0 00-.349-2.547c-.704-1.326-2.629-2.365-6.572-2.365-.764.007-1.527.066-2.283.177-1.138.26-2.01.787-3.244 1.666.177-1.224 1.492-2.276 2.628-2.714.185-.11.396-.171.611-.177a25.616 25.616 0 013.337-.614 15.993 15.993 0 003.062-.527l.089-.172 1.77-5.433c-.266 0-.531.092-.787.092-1.231.173-2.457.35-3.771.527a18.828 18.828 0 00-3.686.963c-.173 0-.262.089-.443.089a13.574 13.574 0 00-3.943 2.714 20.053 20.053 0 00-3.332 5.425 15.882 15.882 0 00-1.491 4.381c-.089.172-1.491 4.987 7.274 4.987.643.016 1.287-.012 1.926-.084 5.961-.442 8.062-3.33 8.85-5.34a4.62 4.62 0 00.354-1.048zm-7.735.614c-.261.787-.615 2.1-1.492 2.538a1.428 1.428 0 01-.884.177c-1.403 0-1.054-1.49-.615-2.803a3.235 3.235 0 011.491-2.1c.219-.11.458-.171.703-.177 1.522-.005 1.169 1.308.797 2.365zM125.267 7.71a7.601 7.601 0 00-4.62 1.384c-.34.274-.663.569-.964.884l.698-2.011h-6.779l-3.416 10.862-1.492 4.558h7.276l1.858-5.87c.35.525 1.053 1.325 2.806 1.577.404.073.814.102 1.225.084 5.7 0 7.714-4.027 8.152-5.517.421-1.57 1.473-5.95-4.744-5.95zm-2.81 5.955c-.173.615-.611 1.835-1.836 2.1a1.73 1.73 0 01-.705.177c-1.769 0-1.327-1.662-1.052-2.458.172-.614.698-1.768 1.77-2.095.251-.102.517-.162.787-.177 1.743 0 1.301 1.662 1.036 2.453zM110.186 15.416a8.035 8.035 0 001.327-2.626 3.285 3.285 0 00-1.327-3.767c-1.142-.791-3.155-1.326-6.395-1.326-.616-.019-1.233.01-1.846.084-6.044.442-8.15 2.98-8.938 4.554a5.346 5.346 0 01-.266.884c-.173.703-.615 2.365.266 3.678.884 1.229 2.805 2.277 7.08 2.277.615.014 1.23-.014 1.841-.084 4.58-.35 6.939-2.012 8.258-3.674zm-6.577-2.21c-.261.79-.61 2.1-1.664 2.626a2.498 2.498 0 01-.884.176c-1.66 0-.965-1.834-.607-2.803a3.138 3.138 0 011.482-2.188c.253-.099.518-.157.788-.172 1.589.022 1.147 1.507.885 2.378v-.018zM93.621 7.971h-8.77l-5.17 6.481 2.368-6.48h-6.487l-2.806 8.757-.699 2.193h8.59l5.438-6.662-2.456 6.662h6.483l2.894-9.196.615-1.755z" fill="#1A1A18"/><path fill-rule="evenodd" clip-rule="evenodd" d="M265.969 6.052c0 .062.031.124.045.186-.014-.062-.028-.124-.045-.186zM265.76 5.473l.063.155-.063-.155zM265.632 5.217l.075.141-.075-.141zM265.872 5.752c0 .053.035.11.054.168a1.364 1.364 0 00-.054-.168zM266.102 6.72c0 .08 0 .164.026.243-.009-.08-.013-.163-.026-.243zM266.044 6.375c0 .067.023.137.036.208-.005-.07-.005-.141-.036-.208zM266.141 7.087v.393a2.349 2.349 0 000-.393zM253.309 10.394zM253.029 10.906l.062-.097-.062.098zM253.61 9.35zM253.029 16.667l1.368 2.246-1.368-2.246zM253.684 8.4z" fill="#1A1A18"/><path fill-rule="evenodd" clip-rule="evenodd" d="M252.839 11.18zM265.425 4.88l.067.098-.067-.097zM264.711 4.143l.05.04-.05-.04zM263.995 3.714l.093.044-.093-.044zM264.906 4.302l.067.066-.067-.066zM265.088 4.474l.071.08-.071-.08zM265.26 4.646l.072.089-.072-.089zM264.455 3.966l.058.035-.058-.035zM264.305 3.873l-.057-.031.057.031zM265.633 5.204l-.054-.098.054.098zM263.77 3.616l.097.04-.097-.04zM263.087 3.396l.102.026-.102-.026zM262.862 3.342l.102.022-.102-.022zM263.318 3.457l.102.031-.102-.03zM263.543 3.532l.103.036-.103-.036zM266.075 6.579c0 .044 0 .092.023.137-.023-.045-.023-.089-.023-.137zM266.128 6.963v.124c.009-.04.004-.08 0-.124zM265.708 5.358l.054.12-.054-.12zM265.929 5.92l.041.132-.041-.132zM266.013 6.238c0 .044 0 .093.032.137-.01-.049-.023-.093-.032-.137zM265.823 5.628l.049.124-.049-.124z" fill="white"/><path fill-rule="evenodd" clip-rule="evenodd" d="M265.632 3.166v.707c.726.725 1.327 1.852 1.327 3.603a4.047 4.047 0 01-1.327 3.214 4.258 4.258 0 012.049 3.639 4.687 4.687 0 01-1.39 3.457 5.398 5.398 0 01-.659.566v.557h5.373V3.166h-5.373z" fill="#1A1A18"/><path fill-rule="evenodd" clip-rule="evenodd" d="M266.889 14.329a3.318 3.318 0 00-1.261-2.653 4.871 4.871 0 00-1.841-.92 3.058 3.058 0 001.841-1.268 3.495 3.495 0 00.532-2.003v-.394-.123c0-.04 0-.168-.028-.243-.026-.076 0-.093-.021-.137-.023-.045 0-.138-.036-.208-.036-.071 0-.093-.031-.137-.031-.045-.031-.124-.044-.186l-.04-.133c0-.057-.035-.11-.053-.168l-.049-.123-.061-.155-.054-.115-.076-.142-.052-.097-.085-.132-.066-.098-.093-.124-.07-.088-.102-.115-.071-.08-.115-.11-.067-.066-.145-.12-.049-.04-.199-.141-.058-.035-.15-.093-.058-.031h-.021l-.134-.07-.092-.045-.129-.058-.097-.04-.129-.048-.101-.035-.129-.045-.101-.03-.125-.036-.101-.026-.125-.031-.101-.022-.128-.027h-.757l-.407-.026h-8.581v.742c.886.884 1.465 2.29 1.47 4.492a5.09 5.09 0 01-.343 2.046 5.102 5.102 0 01-1.127 1.743v2.913l2.058 3.387.257.442h6.249a6.642 6.642 0 004.035-1.6 3.896 3.896 0 001.261-3.148zm-8.479-7.516h1.063a1.271 1.271 0 011.385 1.163c0 .65-.607 1.154-1.412 1.18h-1.036V6.813zm1.47 8.298h-1.452v-2.6h1.651a1.27 1.27 0 011.288 1.292 1.418 1.418 0 01-1.487 1.308z" fill="#1A1A18"/><path fill-rule="evenodd" clip-rule="evenodd" d="M252.215 15.332l-1.629-2.679c.344-.082.675-.211.982-.385.153-.079.302-.168.443-.265l.222-.172a3.965 3.965 0 00.491-.482l.133-.168a2.76 2.76 0 00.186-.274l.061-.098c.081-.142.154-.29.217-.442a4.599 4.599 0 00.341-1.335c.023-.216.035-.433.035-.65a6.444 6.444 0 00-.654-3.12 3.86 3.86 0 00-.267-.42 3.187 3.187 0 00-.543-.584l-.155-.124a4.945 4.945 0 00-.244-.168l-.257-.146a4.23 4.23 0 00-.92-.363 7.333 7.333 0 00-1.085-.212 11.52 11.52 0 00-.566-.053l-.575-.03h-8.355v15.747h5.373v-5.964l2.973 5.964h5.97l-1.363-2.246-.814-1.33zm-4.244-5.99a1.431 1.431 0 01-.23.349l-.102.102a1.63 1.63 0 01-1.094.416h-1.128V7.395h1.319c.1.01.2.027.297.053l.172.062c.163.068.313.163.443.283.067.063.128.133.181.208l.075.115c.118.204.179.436.177.672.003.19-.034.379-.11.553zM226.154 25.558h1.603a2.131 2.131 0 01-.726 1.202 1.905 1.905 0 01-1.279.509 1.551 1.551 0 01-1.327-.65 2.395 2.395 0 01-.444-1.46c.001-.177.014-.354.04-.53.104-.67.389-1.3.823-1.821a2.225 2.225 0 011.736-.884c.36-.007.711.113.991.34.263.226.452.526.54.862l1.411-.699a2.54 2.54 0 00-1.018-1.326 2.99 2.99 0 00-1.677-.468 4.025 4.025 0 00-2.885 1.189 4.91 4.91 0 00-1.443 2.812c-.04.238-.061.479-.061.72a3.29 3.29 0 00.791 2.273 2.83 2.83 0 002.244.95 3.648 3.648 0 002.784-1.211 5.308 5.308 0 001.31-2.825l.03-.19h-3.257l-.186 1.207zM237.112 23.966l.079-.508h-1.398l-.784 4.912h1.399l.35-2.211a3.18 3.18 0 01.34-1.096 1.117 1.117 0 01.992-.535.838.838 0 01.553.19l.372-1.3a1.474 1.474 0 00-.563-.12 1.64 1.64 0 00-1.34.668zM247.046 23.294a2.894 2.894 0 00-1.978.734 3.234 3.234 0 00-1.057 2.379 2.058 2.058 0 00.596 1.534 2.227 2.227 0 001.607.583 2.921 2.921 0 001.987-.73 3.038 3.038 0 001.017-1.883c.027-.16.04-.323.04-.486a2.054 2.054 0 00-.601-1.547 2.218 2.218 0 00-1.611-.584zm.376 3.466a1.25 1.25 0 01-1.009.535.886.886 0 01-.726-.353 1.242 1.242 0 01-.243-.787c.004-.4.143-.786.394-1.097a1.29 1.29 0 011.022-.535.853.853 0 01.713.332c.174.231.265.515.256.805-.004.4-.148.786-.407 1.091v.01zM258.171 26.12c-.136.819-.473 1.229-1.013 1.229-.44 0-.66-.254-.66-.761.004-.158.027-.315.067-.469l.412-2.652h-1.399l-.443 2.891a3.252 3.252 0 00-.049.54c0 1.093.635 1.64 1.903 1.64 1.476 0 2.327-.727 2.554-2.18l.443-2.891h-1.399l-.416 2.652zM270.501 23.935a1.692 1.692 0 00-1.395-.64 1.985 1.985 0 00-1.455.61l.07-.443h-1.398l-1.191 7.543h1.386l.477-3.095a1.265 1.265 0 001.213.619 2.462 2.462 0 001.974-1 3.24 3.24 0 00.761-2.104 2.273 2.273 0 00-.442-1.49zm-1.372 2.817a1.28 1.28 0 01-1.005.535.885.885 0 01-.726-.354 1.295 1.295 0 01-.243-.796c.001-.399.143-.784.403-1.088a1.247 1.247 0 011.004-.534.846.846 0 01.713.353c.173.225.262.504.252.787-.002.4-.142.788-.398 1.097z" fill="#1A1A18"/><path fill-rule="evenodd" clip-rule="evenodd" d="M222.569 3.148h15.751l.004 15.747-15.755-.008V3.147z" fill="#D8D9D9"/><path fill-rule="evenodd" clip-rule="evenodd" d="M222.569 3.148h15.751l.004 15.747-15.755-.008V3.147z" fill="#1A1A18"/><path fill-rule="evenodd" clip-rule="evenodd" d="M222.995 18.453L222.99 3.59h14.887l-.013 14.868-14.869-.005z" fill="#FFEC00"/><path fill-rule="evenodd" clip-rule="evenodd" d="M230.421 12.914l4.739 4.726 1.854-1.853-4.744-4.735.925-.915V8.294l.66-.659v1.53l.646.636 2.314-2.316.624.619a4.148 4.148 0 00-1.217-2.843 1.99 1.99 0 00-1.431-.665 1.979 1.979 0 00-1.464.59l-2.212 2.228.558.557-1.231 1.225-1.229-1.225.557-.557-2.234-2.233a1.987 1.987 0 00-2.895.076 4.09 4.09 0 00-1.195 2.842l.602-.619 2.315 2.317.645-.641v-1.52l.66.658v1.839l.925.92-4.7 4.69 1.854 1.848 4.674-4.677z" fill="#1A1A18"/></g><defs><clipPath id="clip0"><path fill="white" d="M0 0h271v31H0z"/></clipPath></defs></svg>