<svg width="271" height="31" fill="none" xmlns="http://www.w3.org/2000/svg"><g clip-path="url(#clip0)"><path d="M15.251.522A10.794 10.794 0 0011.835 0h-.084a11.814 11.814 0 00-8.278 3.369 11.401 11.401 0 00-3.43 8.133c0 3.051 1.234 5.977 3.43 8.134a11.814 11.814 0 008.278 3.369h.084a10.979 10.979 0 003.416-.609 11.668 11.668 0 005.9-4.157 11.335 11.335 0 002.258-6.78c0-2.438-.79-4.813-2.258-6.78a11.669 11.669 0 00-5.9-4.157zm0 21.448c-1.103.35-2.256.526-3.416.517h-.084c-2.976 0-5.831-1.161-7.936-3.23a10.93 10.93 0 01-3.287-7.796 10.93 10.93 0 013.287-7.797 11.325 11.325 0 017.936-3.23h.084a10.79 10.79 0 013.416.61 11.196 11.196 0 015.588 4 10.88 10.88 0 012.133 6.463 10.88 10.88 0 01-2.133 6.462 11.197 11.197 0 01-5.588 4z" fill="white"/><path d="M19.547 6.03c.276.694.425 1.43.442 2.174 0 3.183-3.244 4.474-4.558 4.392h-.177c-.168 0-.261-.083-.261-.17 0-.26.089-.435.261-.435a.286.286 0 01.177-.082c.354 0 .443.082.788.082.345 0 .442-.26.615-.608a1.044 1.044 0 00.257-.774c0-.687-.704-2.066-1.05-3.357 0 .344 0 1.113-.344 1.113a.489.489 0 01-.443-.256c-.168-.257-.345-.6-.518-.87a4.22 4.22 0 010 1.03c0 .34-.093.6-.265.6-.173 0-.443-.26-.443-.869s.084-1.04.084-2.07c.012-.72-.2-1.427-.607-2.027a3.604 3.604 0 00-1.672-1.33 4.179 4.179 0 00-1.048-.173c-3.067 0-3.421 2.752-3.59 2.835-.167.082-.353-.509-1.327-.509-1.137 0-2.367 1.465-2.801 2.33a9.372 9.372 0 00-1.142 4.47 9.53 9.53 0 002.896 6.78 9.875 9.875 0 006.924 2.786h.084a8.866 8.866 0 003.416-.692 9.597 9.597 0 004.53-3.478 9.337 9.337 0 001.701-5.396 9.517 9.517 0 00-1.84-5.596l-.09.1zm-7.714 4.996a4.967 4.967 0 01-1.137-3.191c0-.596.181-.687.354-.687.354 0 .527.517.783 1.204.064.254.185.49.354.691.266.605.443.948.7 1.553-.06.436-.03.88.088 1.304-.397-.272-.78-.564-1.146-.874h.004zm3.417 5.94a2.089 2.089 0 01-1.443-.623 1.992 1.992 0 01-.571-1.443 2.54 2.54 0 01.443-1.304c.442.6 1.053 1.035 1.57.6l.09-.087c.442-.435.088-1.03-.09-1.205a2.095 2.095 0 011.472.563 1.996 1.996 0 01.635 1.42 2.077 2.077 0 01-.62 1.464c-.394.39-.928.612-1.486.619v-.005zM52.245 18.61l2.283-6.975 2.713-8.448H35.504l-5 15.422h8.155L42.08 7.757h5.518l-3.5 10.852h8.147zM73.017 13.44c.177-.344.965-2.753-.26-4.3-.7-.953-2.014-1.553-4.386-1.553a7.586 7.586 0 00-4.647 1.378c-.358.248-.683.54-.964.87l.703-1.978h-6.748l-2.169 6.713-2.717 8.443h7.142l1.93-5.774c.35.518.96 1.305 2.805 1.553.377.068.76.096 1.142.082 4.908 0 7.014-2.843 7.89-4.652.12-.25.214-.513.28-.783zm-7.452 0c-.177.517-.615 1.738-1.84 2.065a1.673 1.673 0 01-.704.173c-1.77 0-1.328-1.634-1.05-2.417.266-.604.612-1.804 1.77-2.152.266 0 .443-.083.709-.083 1.836 0 1.328 1.63 1.133 2.413h-.018zM186.101 7.84h-7.187l-1.23 3.795h-2.544l1.23-3.796h-7.275l-2.89 8.788-.615 1.982h7.275l1.222-3.878h2.544l-1.225 3.878h7.186l2.283-6.974 1.226-3.796zM206.789 7.84h-8.24l-5.61 4.308 2.982-9.048h-7.279l-3.767 11.726-1.23 3.783H190.836l1.752-5.252 2.373 5.252h8.496l-3.333-6.03 6.665-4.74zM166.727 12.057c.089-.34.089-.596.177-.87a2.099 2.099 0 00-.704-1.982c-.885-.948-2.894-1.635-7.191-1.635h-1.664a33.576 33.576 0 00-4.819.6l-.965 3.017a21.94 21.94 0 015.351-.87h.442c2.717.083 2.978.77 2.894 1.305a.311.311 0 01-.093.257c-.9-.11-1.805-.168-2.712-.174h-.089c-5.434 0-7.713 1.739-8.678 3.274-.153.33-.271.675-.349 1.03a1.794 1.794 0 00.349 1.64c.7.769 2.279 1.204 4.209 1.204a9.425 9.425 0 004.469-1.03c.442-.349.788-.61 1.049-.78l-.523 1.549h6.749l1.58-5.079.518-1.456zm-7.27 2.174a3.086 3.086 0 01-1.058 1.378 5.306 5.306 0 01-1.049.435 2.564 2.564 0 01-.788.082c-.965 0-1.487-.252-1.402-.77v-.26a1.81 1.81 0 01.568-.69c.246-.179.531-.296.834-.34.261 0 .443-.087.788-.087.492-.082.992-.111 1.491-.087h.704l-.088.339zM149.017 12.492a3.28 3.28 0 00-.349-2.505c-.704-1.304-2.629-2.326-6.572-2.326a17.03 17.03 0 00-2.283.174c-1.138.256-2.01.774-3.245 1.64.177-1.205 1.492-2.24 2.629-2.67.185-.109.395-.169.611-.174a25.973 25.973 0 013.337-.605 16.24 16.24 0 003.062-.517l.089-.17 1.77-5.343c-.266 0-.531.09-.788.09-1.23.17-2.456.344-3.77.518-1.258.193-2.494.51-3.687.948-.172 0-.261.087-.442.087a13.601 13.601 0 00-3.944 2.67 19.693 19.693 0 00-3.332 5.335 15.51 15.51 0 00-1.491 4.308c-.088.17-1.491 4.905 7.275 4.905.643.015 1.287-.012 1.926-.083 5.961-.435 8.062-3.274 8.85-5.252.159-.328.278-.674.354-1.03zm-7.735.604c-.261.774-.615 2.065-1.492 2.495-.268.15-.578.212-.884.175-1.403 0-1.054-1.466-.616-2.757.092-.426.271-.83.529-1.184.256-.356.584-.655.962-.881.219-.109.459-.169.704-.174 1.522-.005 1.169 1.287.797 2.326zM125.267 7.583a7.692 7.692 0 00-4.62 1.36c-.341.27-.663.56-.965.87l.699-1.978h-6.779l-3.416 10.683L108.694 23h7.276l1.857-5.774c.351.517 1.054 1.304 2.806 1.552.404.071.815.1 1.226.082 5.7 0 7.713-3.96 8.152-5.426.42-1.543 1.473-5.852-4.744-5.852zm-2.81 5.857c-.173.604-.612 1.804-1.836 2.065-.221.106-.46.165-.705.174-1.77 0-1.327-1.635-1.053-2.418.173-.604.699-1.739 1.77-2.06.252-.1.518-.16.788-.175 1.743 0 1.301 1.635 1.036 2.414zM110.186 15.161a7.851 7.851 0 001.327-2.582 3.187 3.187 0 00-.026-2.073 3.25 3.25 0 00-1.301-1.632c-1.142-.778-3.156-1.304-6.395-1.304a12.48 12.48 0 00-1.846.082c-6.044.435-8.151 2.93-8.939 4.479a5.18 5.18 0 01-.265.87c-.173.69-.615 2.325.265 3.617.885 1.209 2.806 2.239 7.081 2.239.615.014 1.23-.014 1.84-.083 4.581-.343 6.94-1.978 8.259-3.613zm-6.577-2.174c-.261.779-.61 2.066-1.664 2.583-.282.11-.581.17-.884.174-1.66 0-.965-1.804-.607-2.757.072-.443.243-.865.499-1.237.256-.372.592-.684.983-.915a2.59 2.59 0 01.788-.17c1.589.022 1.146 1.483.885 2.34v-.018zM93.621 7.84H84.85l-5.168 6.373 2.367-6.374h-6.487l-2.806 8.614-.699 2.156h8.59l5.438-6.552-2.456 6.552h6.483l2.894-9.044.615-1.726z" fill="white"/><path fill-rule="evenodd" clip-rule="evenodd" d="M265.969 5.952c0 .061.031.122.045.183a4.048 4.048 0 00-.045-.183zM265.76 5.382l.063.152-.063-.152zM265.632 5.13l.076.14-.076-.14zM265.872 5.657c0 .052.035.108.054.165a1.326 1.326 0 00-.054-.165zM266.102 6.609c0 .078 0 .16.026.239-.009-.078-.013-.16-.026-.24zM266.044 6.27c0 .065.022.134.036.204-.005-.07-.005-.14-.036-.204zM266.141 6.97v.387c.014-.135.01-.261 0-.387zM253.308 10.222zM253.029 10.726l.062-.096-.062.096zM253.61 9.196zM253.029 16.392l1.368 2.208-1.368-2.208zM253.683 8.261z" fill="#1A1A18"/><path fill-rule="evenodd" clip-rule="evenodd" d="M252.839 10.996zM265.425 4.8l.066.096-.066-.096zM264.711 4.074l.051.04-.051-.04zM263.995 3.652l.094.044-.094-.044zM264.906 4.23l.067.066-.067-.066zM265.088 4.4l.071.078-.071-.078zM265.26 4.57l.072.086-.072-.087zM264.455 3.9l.058.035-.058-.035zM264.305 3.81l-.057-.032.057.031zM265.633 5.118l-.054-.096.054.096zM263.769 3.557l.097.04-.097-.04zM263.087 3.34l.102.026-.102-.027zM262.862 3.287l.102.022-.102-.022zM263.318 3.4l.102.03-.102-.03zM263.543 3.474l.102.035-.102-.035zM266.075 6.47c0 .043 0 .091.023.135-.023-.044-.023-.087-.023-.135zM266.128 6.848v.122c.009-.04.004-.078 0-.122zM265.707 5.27l.054.117-.054-.117zM265.929 5.822l.041.13-.041-.13zM266.013 6.135c0 .043 0 .091.032.135-.01-.048-.023-.092-.032-.135zM265.823 5.535l.049.122-.049-.122z" fill="white"/><path fill-rule="evenodd" clip-rule="evenodd" d="M265.632 3.113v.696c.726.713 1.328 1.822 1.328 3.543a3.937 3.937 0 01-1.328 3.161 4.22 4.22 0 011.502 1.526c.359.627.548 1.334.548 2.053a4.559 4.559 0 01-1.391 3.4 5.385 5.385 0 01-.659.556v.548h5.373V3.113h-5.373z" fill="white"/><path fill-rule="evenodd" clip-rule="evenodd" d="M266.889 14.092c.007-.5-.104-.996-.323-1.448a3.281 3.281 0 00-.938-1.16 4.904 4.904 0 00-1.841-.905 3.059 3.059 0 001.841-1.248 3.386 3.386 0 00.531-1.97v-.387-.121c0-.04 0-.166-.027-.24-.027-.073 0-.09-.022-.134-.022-.044 0-.135-.035-.205-.036-.07 0-.091-.031-.135-.032-.043-.032-.121-.044-.182l-.04-.13c0-.057-.036-.11-.053-.166l-.049-.122-.062-.152-.054-.113-.075-.139-.053-.095-.084-.13-.066-.097-.093-.121-.071-.087-.102-.113-.07-.079-.115-.108-.067-.066-.146-.117-.049-.039-.198-.14-.058-.034-.151-.091-.057-.03h-.022l-.133-.07-.093-.044-.128-.056-.098-.04-.128-.047-.102-.035-.128-.043-.102-.03-.124-.036-.102-.026-.124-.03-.102-.022-.128-.026h-.756l-.407-.026h-8.581v.73c.885.87 1.464 2.253 1.469 4.418a4.932 4.932 0 01-.342 2.012 5.01 5.01 0 01-1.127 1.714v2.865l2.057 3.33.258.435h6.248a6.706 6.706 0 004.036-1.573c.433-.39.772-.871.99-1.407a3.786 3.786 0 00.271-1.69zM258.41 6.7h1.062a1.288 1.288 0 01.937.287c.128.107.234.237.312.384.076.147.123.308.137.473 0 .639-.607 1.135-1.412 1.16h-1.036V6.7zm1.469 8.161h-1.452v-2.556h1.652a1.292 1.292 0 01.917.367 1.239 1.239 0 01.37.902c-.027.363-.198.701-.476.942-.278.24-.641.365-1.011.345z" fill="white"/><path fill-rule="evenodd" clip-rule="evenodd" d="M252.215 15.079l-1.629-2.635a3.78 3.78 0 00.982-.378c.153-.079.302-.166.444-.261l.221-.17c.07-.056.142-.117.212-.182.098-.093.191-.19.279-.292l.133-.165a2.71 2.71 0 00.186-.27l.061-.095a3.94 3.94 0 00.218-.435c.035-.074.065-.152.093-.23a4.549 4.549 0 00.247-1.083c.024-.212.035-.426.035-.64a6.249 6.249 0 00-.654-3.069 3.933 3.933 0 00-.266-.413 3.266 3.266 0 00-.544-.574l-.155-.122c-.08-.056-.159-.113-.244-.165l-.257-.143a4.262 4.262 0 00-.919-.357 7.493 7.493 0 00-1.085-.208 11.85 11.85 0 00-.567-.053l-.575-.03h-8.355v15.487h5.373v-5.865l2.973 5.865h5.97l-1.363-2.209-.814-1.308zm-4.244-5.892c-.059.125-.137.241-.23.344l-.102.1a1.65 1.65 0 01-1.093.409h-1.128V7.273h1.318c.1.009.2.026.297.052l.172.061c.163.066.313.16.443.278.067.062.128.131.181.205l.075.113c.118.2.18.429.178.66.003.188-.035.373-.111.544zM226.154 25.135h1.603c-.099.463-.356.88-.726 1.182a1.926 1.926 0 01-1.279.5 1.575 1.575 0 01-.748-.153 1.539 1.539 0 01-.58-.486 2.327 2.327 0 01-.443-1.434c.001-.175.014-.35.04-.522.104-.66.389-1.28.823-1.792a2.214 2.214 0 011.736-.87c.36-.006.711.113.991.336.263.222.452.517.54.848l1.41-.688a2.508 2.508 0 00-1.017-1.304 3.028 3.028 0 00-1.677-.46 4.084 4.084 0 00-1.563.298c-.495.2-.945.497-1.322.87a4.796 4.796 0 00-1.443 2.766c-.04.234-.062.471-.062.709a3.208 3.208 0 00.792 2.235c.28.31.626.555 1.014.717.389.162.808.236 1.23.218a3.691 3.691 0 001.524-.297c.481-.206.91-.511 1.259-.895a5.168 5.168 0 001.31-2.778l.031-.187h-3.257l-.186 1.187zM237.111 23.57l.08-.5h-1.398l-.784 4.83h1.399l.349-2.174c.046-.377.162-.742.341-1.078.102-.167.248-.304.422-.396.174-.093.371-.138.57-.13.2-.005.397.061.552.187l.372-1.278a1.494 1.494 0 00-.562-.118 1.663 1.663 0 00-1.341.657zM247.047 22.909a2.925 2.925 0 00-1.979.722 3.208 3.208 0 00-.778 1.06 3.136 3.136 0 00-.279 1.279 2.009 2.009 0 00.597 1.509 2.22 2.22 0 001.606.573 2.95 2.95 0 001.987-.717 2.964 2.964 0 001.017-1.852 2.84 2.84 0 00.041-.478 2.014 2.014 0 00-.602-1.522 2.245 2.245 0 00-1.61-.574zm.375 3.409a1.27 1.27 0 01-1.008.526.896.896 0 01-.726-.348 1.203 1.203 0 01-.244-.774c.004-.393.143-.773.394-1.078a1.282 1.282 0 011.023-.526.858.858 0 01.712.326c.174.227.265.506.256.791a1.665 1.665 0 01-.407 1.074v.009zM258.171 25.687c-.136.806-.473 1.21-1.013 1.21-.439 0-.66-.25-.66-.749.004-.155.027-.31.067-.46l.412-2.61h-1.399l-.442 2.844a3.047 3.047 0 00-.049.53c0 1.076.635 1.614 1.903 1.614 1.475 0 2.326-.715 2.553-2.144l.443-2.843h-1.399l-.416 2.608zM270.5 23.54a1.711 1.711 0 00-1.394-.63 2.014 2.014 0 00-1.456.599l.071-.435h-1.398l-1.191 7.418h1.385l.478-3.044a1.26 1.26 0 001.213.609c.384-.001.763-.09 1.105-.261.343-.17.64-.418.868-.722.496-.579.765-1.313.761-2.07a2.199 2.199 0 00-.442-1.465zm-1.371 2.77a1.276 1.276 0 01-1.005.525.896.896 0 01-.726-.348 1.254 1.254 0 01-.244-.782c.001-.392.144-.771.403-1.07a1.262 1.262 0 011.005-.526.85.85 0 01.712.348c.173.221.262.495.253.774a1.683 1.683 0 01-.398 1.078z" fill="white"/><path d="M223.069 3.596h14.751l.003 14.487-14.754-.008V3.595z" stroke="white"/><path fill-rule="evenodd" clip-rule="evenodd" d="M230.421 12.7l4.739 4.648 1.854-1.822-4.744-4.656.925-.9V8.156l.66-.647v1.504l.646.626 2.314-2.278.624.609a4.047 4.047 0 00-1.217-2.796 1.988 1.988 0 00-1.431-.654 2.008 2.008 0 00-1.464.58l-2.212 2.191.558.548-1.231 1.204-1.229-1.204.557-.548-2.234-2.195a1.99 1.99 0 00-1.464-.58 2.006 2.006 0 00-1.431.653 3.99 3.99 0 00-1.195 2.796l.602-.609 2.315 2.279.645-.63V7.508l.66.647v1.81l.925.904-4.7 4.613 1.854 1.817 4.674-4.6z" fill="white"/></g><defs><clipPath id="clip0"><path fill="white" d="M0 0h271v30.488H0z"/></clipPath></defs></svg>