<?xml version="1.0" encoding="utf-8"?><svg xmlns="http://www.w3.org/2000/svg" xmlns:xlink="http://www.w3.org/1999/xlink"><symbol viewBox="0 0 15 15" id="check" xmlns="http://www.w3.org/2000/svg"><mask id="aa" maskUnits="userSpaceOnUse" x="0" y="0" width="15" height="15"><path d="M0 0h15v15H0V0z"/></mask><g mask="url(#aa)"><path d="M5.333 10.81L2.321 7.656A1.102 1.102 0 10.727 9.178l3.964 4.15a.889.889 0 001.285 0l8.57-8.972a1.102 1.102 0 00-1.594-1.522L5.333 10.81z"/></g><defs><linearGradient id="apaint0_linear" x1="7.636" y1="2.493" x2="7.636" y2="13.602" gradientUnits="userSpaceOnUse"><stop stop-color="#FFED00"/><stop offset="1" stop-color="#FFD600"/></linearGradient></defs></symbol><symbol viewBox="0 0 18 18" id="info" xmlns="http://www.w3.org/2000/svg"><path fill-rule="evenodd" clip-rule="evenodd" d="M9 0C4.025 0 0 4.026 0 9c0 4.975 4.026 9 9 9 4.975 0 9-4.026 9-9 0-4.975-4.026-9-9-9zm0 16.594A7.59 7.59 0 011.406 9 7.59 7.59 0 019 1.406 7.59 7.59 0 0116.594 9 7.59 7.59 0 019 16.594zm0-9.059a.703.703 0 00-.703.703v4.528a.703.703 0 101.406 0V8.238A.703.703 0 009 7.535zm.95-1.81a.95.95 0 11-1.9 0 .95.95 0 011.9 0z"/></symbol></svg>